<mxfile host="app.diagrams.net" modified="2022-11-10T16:49:50.111Z" agent="5.0 (Windows NT 10.0; Win64; x64) AppleWebKit/537.36 (KHTML, like Gecko) Chrome/107.0.0.0 Safari/537.36" etag="P6yTiBGLaoR2tl4mv1j0" version="20.5.3" type="github">
  <diagram id="L7-VrTrqVsXTuc7JY2PF" name="Trang-1">
    <mxGraphModel dx="708" dy="426" grid="1" gridSize="10" guides="1" tooltips="1" connect="1" arrows="1" fold="1" page="1" pageScale="1" pageWidth="1000" pageHeight="10000" math="0" shadow="0">
      <root>
        <mxCell id="0" />
        <mxCell id="1" parent="0" />
        <mxCell id="-29obUkqVTbiaysX2pNh-2" value="" style="endArrow=none;html=1;rounded=0;entryX=0.5;entryY=1;entryDx=0;entryDy=0;" edge="1" parent="1" target="-29obUkqVTbiaysX2pNh-13">
          <mxGeometry width="50" height="50" relative="1" as="geometry">
            <mxPoint x="288" y="3482.3392740885415" as="sourcePoint" />
            <mxPoint x="288" y="158" as="targetPoint" />
          </mxGeometry>
        </mxCell>
        <mxCell id="-29obUkqVTbiaysX2pNh-3" value="" style="endArrow=none;html=1;rounded=0;entryX=0.5;entryY=1;entryDx=0;entryDy=0;" edge="1" parent="1" target="-29obUkqVTbiaysX2pNh-14">
          <mxGeometry width="50" height="50" relative="1" as="geometry">
            <mxPoint x="687" y="3760.5851236979165" as="sourcePoint" />
            <mxPoint x="687" y="159" as="targetPoint" />
          </mxGeometry>
        </mxCell>
        <mxCell id="-29obUkqVTbiaysX2pNh-13" value="client" style="text;html=1;strokeColor=none;fillColor=none;align=center;verticalAlign=middle;whiteSpace=wrap;rounded=0;" vertex="1" parent="1">
          <mxGeometry x="258" y="95" width="60" height="30" as="geometry" />
        </mxCell>
        <mxCell id="-29obUkqVTbiaysX2pNh-14" value="server" style="text;html=1;strokeColor=none;fillColor=none;align=center;verticalAlign=middle;whiteSpace=wrap;rounded=0;" vertex="1" parent="1">
          <mxGeometry x="658" y="97" width="60" height="30" as="geometry" />
        </mxCell>
        <mxCell id="-29obUkqVTbiaysX2pNh-15" value="" style="endArrow=classic;html=1;rounded=0;" edge="1" parent="1">
          <mxGeometry relative="1" as="geometry">
            <mxPoint x="288" y="178" as="sourcePoint" />
            <mxPoint x="688" y="318" as="targetPoint" />
          </mxGeometry>
        </mxCell>
        <mxCell id="-29obUkqVTbiaysX2pNh-16" value="ACK: 1" style="edgeLabel;resizable=0;html=1;align=center;verticalAlign=middle;" connectable="0" vertex="1" parent="-29obUkqVTbiaysX2pNh-15">
          <mxGeometry relative="1" as="geometry">
            <mxPoint x="38" y="10" as="offset" />
          </mxGeometry>
        </mxCell>
        <mxCell id="-29obUkqVTbiaysX2pNh-18" value="Seq: 1" style="edgeLabel;resizable=0;html=1;align=center;verticalAlign=middle;" connectable="0" vertex="1" parent="-29obUkqVTbiaysX2pNh-15">
          <mxGeometry relative="1" as="geometry">
            <mxPoint x="-78" y="-28" as="offset" />
          </mxGeometry>
        </mxCell>
        <mxCell id="-29obUkqVTbiaysX2pNh-19" value="" style="endArrow=classic;html=1;rounded=0;" edge="1" parent="1">
          <mxGeometry relative="1" as="geometry">
            <mxPoint x="288" y="206.99999999999994" as="sourcePoint" />
            <mxPoint x="688" y="347" as="targetPoint" />
          </mxGeometry>
        </mxCell>
        <mxCell id="-29obUkqVTbiaysX2pNh-20" value="ACK: 1" style="edgeLabel;resizable=0;html=1;align=center;verticalAlign=middle;" connectable="0" vertex="1" parent="-29obUkqVTbiaysX2pNh-19">
          <mxGeometry relative="1" as="geometry">
            <mxPoint x="38" y="11" as="offset" />
          </mxGeometry>
        </mxCell>
        <mxCell id="-29obUkqVTbiaysX2pNh-21" value="Seq: 750" style="edgeLabel;resizable=0;html=1;align=center;verticalAlign=middle;" connectable="0" vertex="1" parent="-29obUkqVTbiaysX2pNh-19">
          <mxGeometry relative="1" as="geometry">
            <mxPoint x="-78" y="-28" as="offset" />
          </mxGeometry>
        </mxCell>
        <mxCell id="-29obUkqVTbiaysX2pNh-23" value="" style="endArrow=classic;html=1;rounded=0;" edge="1" parent="1">
          <mxGeometry relative="1" as="geometry">
            <mxPoint x="289" y="232.99999999999994" as="sourcePoint" />
            <mxPoint x="689" y="373" as="targetPoint" />
          </mxGeometry>
        </mxCell>
        <mxCell id="-29obUkqVTbiaysX2pNh-24" value="ACK: 1" style="edgeLabel;resizable=0;html=1;align=center;verticalAlign=middle;" connectable="0" vertex="1" parent="-29obUkqVTbiaysX2pNh-23">
          <mxGeometry relative="1" as="geometry">
            <mxPoint x="38" y="10" as="offset" />
          </mxGeometry>
        </mxCell>
        <mxCell id="-29obUkqVTbiaysX2pNh-25" value="Seq: 2202" style="edgeLabel;resizable=0;html=1;align=center;verticalAlign=middle;" connectable="0" vertex="1" parent="-29obUkqVTbiaysX2pNh-23">
          <mxGeometry relative="1" as="geometry">
            <mxPoint x="-78" y="-28" as="offset" />
          </mxGeometry>
        </mxCell>
        <mxCell id="-29obUkqVTbiaysX2pNh-26" value="" style="endArrow=classic;html=1;rounded=0;" edge="1" parent="1">
          <mxGeometry relative="1" as="geometry">
            <mxPoint x="288" y="261.9999999999999" as="sourcePoint" />
            <mxPoint x="688" y="402" as="targetPoint" />
          </mxGeometry>
        </mxCell>
        <mxCell id="-29obUkqVTbiaysX2pNh-27" value="ACK: 1" style="edgeLabel;resizable=0;html=1;align=center;verticalAlign=middle;" connectable="0" vertex="1" parent="-29obUkqVTbiaysX2pNh-26">
          <mxGeometry relative="1" as="geometry">
            <mxPoint x="38" y="11" as="offset" />
          </mxGeometry>
        </mxCell>
        <mxCell id="-29obUkqVTbiaysX2pNh-28" value="Seq: 3654" style="edgeLabel;resizable=0;html=1;align=center;verticalAlign=middle;" connectable="0" vertex="1" parent="-29obUkqVTbiaysX2pNh-26">
          <mxGeometry relative="1" as="geometry">
            <mxPoint x="-78" y="-28" as="offset" />
          </mxGeometry>
        </mxCell>
        <mxCell id="-29obUkqVTbiaysX2pNh-29" value="" style="endArrow=classic;html=1;rounded=0;" edge="1" parent="1">
          <mxGeometry relative="1" as="geometry">
            <mxPoint x="288" y="288.99999999999994" as="sourcePoint" />
            <mxPoint x="688" y="429" as="targetPoint" />
          </mxGeometry>
        </mxCell>
        <mxCell id="-29obUkqVTbiaysX2pNh-30" value="ACK: 1" style="edgeLabel;resizable=0;html=1;align=center;verticalAlign=middle;" connectable="0" vertex="1" parent="-29obUkqVTbiaysX2pNh-29">
          <mxGeometry relative="1" as="geometry">
            <mxPoint x="38" y="10" as="offset" />
          </mxGeometry>
        </mxCell>
        <mxCell id="-29obUkqVTbiaysX2pNh-31" value="Seq: 5106" style="edgeLabel;resizable=0;html=1;align=center;verticalAlign=middle;" connectable="0" vertex="1" parent="-29obUkqVTbiaysX2pNh-29">
          <mxGeometry relative="1" as="geometry">
            <mxPoint x="-78" y="-28" as="offset" />
          </mxGeometry>
        </mxCell>
        <mxCell id="-29obUkqVTbiaysX2pNh-32" value="" style="endArrow=classic;html=1;rounded=0;" edge="1" parent="1">
          <mxGeometry relative="1" as="geometry">
            <mxPoint x="289" y="317.9999999999999" as="sourcePoint" />
            <mxPoint x="689" y="458" as="targetPoint" />
          </mxGeometry>
        </mxCell>
        <mxCell id="-29obUkqVTbiaysX2pNh-33" value="ACK: 1" style="edgeLabel;resizable=0;html=1;align=center;verticalAlign=middle;" connectable="0" vertex="1" parent="-29obUkqVTbiaysX2pNh-32">
          <mxGeometry relative="1" as="geometry">
            <mxPoint x="38" y="11" as="offset" />
          </mxGeometry>
        </mxCell>
        <mxCell id="-29obUkqVTbiaysX2pNh-34" value="Seq: 6558" style="edgeLabel;resizable=0;html=1;align=center;verticalAlign=middle;" connectable="0" vertex="1" parent="-29obUkqVTbiaysX2pNh-32">
          <mxGeometry relative="1" as="geometry">
            <mxPoint x="-78" y="-28" as="offset" />
          </mxGeometry>
        </mxCell>
        <mxCell id="-29obUkqVTbiaysX2pNh-35" value="" style="endArrow=classic;html=1;rounded=0;" edge="1" parent="1">
          <mxGeometry relative="1" as="geometry">
            <mxPoint x="288" y="343.99999999999994" as="sourcePoint" />
            <mxPoint x="688" y="484" as="targetPoint" />
          </mxGeometry>
        </mxCell>
        <mxCell id="-29obUkqVTbiaysX2pNh-36" value="ACK: 1" style="edgeLabel;resizable=0;html=1;align=center;verticalAlign=middle;" connectable="0" vertex="1" parent="-29obUkqVTbiaysX2pNh-35">
          <mxGeometry relative="1" as="geometry">
            <mxPoint x="38" y="10" as="offset" />
          </mxGeometry>
        </mxCell>
        <mxCell id="-29obUkqVTbiaysX2pNh-37" value="Seq: 8010" style="edgeLabel;resizable=0;html=1;align=center;verticalAlign=middle;" connectable="0" vertex="1" parent="-29obUkqVTbiaysX2pNh-35">
          <mxGeometry relative="1" as="geometry">
            <mxPoint x="-85" y="-30" as="offset" />
          </mxGeometry>
        </mxCell>
        <mxCell id="-29obUkqVTbiaysX2pNh-38" value="" style="endArrow=classic;html=1;rounded=0;" edge="1" parent="1">
          <mxGeometry relative="1" as="geometry">
            <mxPoint x="288" y="372.9999999999999" as="sourcePoint" />
            <mxPoint x="688" y="513" as="targetPoint" />
          </mxGeometry>
        </mxCell>
        <mxCell id="-29obUkqVTbiaysX2pNh-39" value="ACK: 1" style="edgeLabel;resizable=0;html=1;align=center;verticalAlign=middle;" connectable="0" vertex="1" parent="-29obUkqVTbiaysX2pNh-38">
          <mxGeometry relative="1" as="geometry">
            <mxPoint x="51" y="16" as="offset" />
          </mxGeometry>
        </mxCell>
        <mxCell id="-29obUkqVTbiaysX2pNh-40" value="Seq: 9462" style="edgeLabel;resizable=0;html=1;align=center;verticalAlign=middle;" connectable="0" vertex="1" parent="-29obUkqVTbiaysX2pNh-38">
          <mxGeometry relative="1" as="geometry">
            <mxPoint x="-78" y="-28" as="offset" />
          </mxGeometry>
        </mxCell>
        <mxCell id="-29obUkqVTbiaysX2pNh-41" value="" style="endArrow=classic;html=1;rounded=0;" edge="1" parent="1">
          <mxGeometry relative="1" as="geometry">
            <mxPoint x="287" y="396.99999999999994" as="sourcePoint" />
            <mxPoint x="687" y="537" as="targetPoint" />
          </mxGeometry>
        </mxCell>
        <mxCell id="-29obUkqVTbiaysX2pNh-42" value="ACK: 1" style="edgeLabel;resizable=0;html=1;align=center;verticalAlign=middle;" connectable="0" vertex="1" parent="-29obUkqVTbiaysX2pNh-41">
          <mxGeometry relative="1" as="geometry">
            <mxPoint x="38" y="10" as="offset" />
          </mxGeometry>
        </mxCell>
        <mxCell id="-29obUkqVTbiaysX2pNh-43" value="Seq: 10914" style="edgeLabel;resizable=0;html=1;align=center;verticalAlign=middle;" connectable="0" vertex="1" parent="-29obUkqVTbiaysX2pNh-41">
          <mxGeometry relative="1" as="geometry">
            <mxPoint x="-78" y="-28" as="offset" />
          </mxGeometry>
        </mxCell>
        <mxCell id="-29obUkqVTbiaysX2pNh-44" value="" style="endArrow=classic;html=1;rounded=0;" edge="1" parent="1">
          <mxGeometry relative="1" as="geometry">
            <mxPoint x="287" y="425.9999999999999" as="sourcePoint" />
            <mxPoint x="687" y="566" as="targetPoint" />
          </mxGeometry>
        </mxCell>
        <mxCell id="-29obUkqVTbiaysX2pNh-45" value="ACK: 1" style="edgeLabel;resizable=0;html=1;align=center;verticalAlign=middle;" connectable="0" vertex="1" parent="-29obUkqVTbiaysX2pNh-44">
          <mxGeometry relative="1" as="geometry">
            <mxPoint x="38" y="11" as="offset" />
          </mxGeometry>
        </mxCell>
        <mxCell id="-29obUkqVTbiaysX2pNh-46" value="Seq: 12366" style="edgeLabel;resizable=0;html=1;align=center;verticalAlign=middle;" connectable="0" vertex="1" parent="-29obUkqVTbiaysX2pNh-44">
          <mxGeometry relative="1" as="geometry">
            <mxPoint x="-78" y="-28" as="offset" />
          </mxGeometry>
        </mxCell>
        <mxCell id="-29obUkqVTbiaysX2pNh-47" value="" style="endArrow=classic;html=1;rounded=0;" edge="1" parent="1">
          <mxGeometry relative="1" as="geometry">
            <mxPoint x="287" y="451.99999999999994" as="sourcePoint" />
            <mxPoint x="687" y="592" as="targetPoint" />
          </mxGeometry>
        </mxCell>
        <mxCell id="-29obUkqVTbiaysX2pNh-48" value="ACK: 1" style="edgeLabel;resizable=0;html=1;align=center;verticalAlign=middle;" connectable="0" vertex="1" parent="-29obUkqVTbiaysX2pNh-47">
          <mxGeometry relative="1" as="geometry">
            <mxPoint x="58" y="20" as="offset" />
          </mxGeometry>
        </mxCell>
        <mxCell id="-29obUkqVTbiaysX2pNh-49" value="Seq: 13818" style="edgeLabel;resizable=0;html=1;align=center;verticalAlign=middle;" connectable="0" vertex="1" parent="-29obUkqVTbiaysX2pNh-47">
          <mxGeometry relative="1" as="geometry">
            <mxPoint x="-78" y="-28" as="offset" />
          </mxGeometry>
        </mxCell>
        <mxCell id="-29obUkqVTbiaysX2pNh-50" value="" style="endArrow=classic;html=1;rounded=0;" edge="1" parent="1">
          <mxGeometry relative="1" as="geometry">
            <mxPoint x="287" y="480.9999999999999" as="sourcePoint" />
            <mxPoint x="687" y="621" as="targetPoint" />
          </mxGeometry>
        </mxCell>
        <mxCell id="-29obUkqVTbiaysX2pNh-51" value="ACK: 1" style="edgeLabel;resizable=0;html=1;align=center;verticalAlign=middle;" connectable="0" vertex="1" parent="-29obUkqVTbiaysX2pNh-50">
          <mxGeometry relative="1" as="geometry">
            <mxPoint x="38" y="11" as="offset" />
          </mxGeometry>
        </mxCell>
        <mxCell id="-29obUkqVTbiaysX2pNh-52" value="Seq: 15270" style="edgeLabel;resizable=0;html=1;align=center;verticalAlign=middle;" connectable="0" vertex="1" parent="-29obUkqVTbiaysX2pNh-50">
          <mxGeometry relative="1" as="geometry">
            <mxPoint x="-78" y="-28" as="offset" />
          </mxGeometry>
        </mxCell>
        <mxCell id="-29obUkqVTbiaysX2pNh-53" value="" style="endArrow=classic;html=1;rounded=0;" edge="1" parent="1">
          <mxGeometry relative="1" as="geometry">
            <mxPoint x="287" y="508" as="sourcePoint" />
            <mxPoint x="687" y="648" as="targetPoint" />
          </mxGeometry>
        </mxCell>
        <mxCell id="-29obUkqVTbiaysX2pNh-54" value="ACK: 1" style="edgeLabel;resizable=0;html=1;align=center;verticalAlign=middle;" connectable="0" vertex="1" parent="-29obUkqVTbiaysX2pNh-53">
          <mxGeometry relative="1" as="geometry">
            <mxPoint x="38" y="10" as="offset" />
          </mxGeometry>
        </mxCell>
        <mxCell id="-29obUkqVTbiaysX2pNh-55" value="Seq: 16722" style="edgeLabel;resizable=0;html=1;align=center;verticalAlign=middle;" connectable="0" vertex="1" parent="-29obUkqVTbiaysX2pNh-53">
          <mxGeometry relative="1" as="geometry">
            <mxPoint x="-83" y="-29" as="offset" />
          </mxGeometry>
        </mxCell>
        <mxCell id="-29obUkqVTbiaysX2pNh-56" value="" style="endArrow=classic;html=1;rounded=0;" edge="1" parent="1">
          <mxGeometry relative="1" as="geometry">
            <mxPoint x="287" y="536.9999999999999" as="sourcePoint" />
            <mxPoint x="687" y="677" as="targetPoint" />
          </mxGeometry>
        </mxCell>
        <mxCell id="-29obUkqVTbiaysX2pNh-57" value="ACK: 1" style="edgeLabel;resizable=0;html=1;align=center;verticalAlign=middle;" connectable="0" vertex="1" parent="-29obUkqVTbiaysX2pNh-56">
          <mxGeometry relative="1" as="geometry">
            <mxPoint x="75" y="26" as="offset" />
          </mxGeometry>
        </mxCell>
        <mxCell id="-29obUkqVTbiaysX2pNh-58" value="Seq: 18174" style="edgeLabel;resizable=0;html=1;align=center;verticalAlign=middle;" connectable="0" vertex="1" parent="-29obUkqVTbiaysX2pNh-56">
          <mxGeometry relative="1" as="geometry">
            <mxPoint x="-78" y="-28" as="offset" />
          </mxGeometry>
        </mxCell>
        <mxCell id="-29obUkqVTbiaysX2pNh-59" value="" style="endArrow=classic;html=1;rounded=0;" edge="1" parent="1">
          <mxGeometry relative="1" as="geometry">
            <mxPoint x="287" y="563" as="sourcePoint" />
            <mxPoint x="687" y="703" as="targetPoint" />
          </mxGeometry>
        </mxCell>
        <mxCell id="-29obUkqVTbiaysX2pNh-60" value="ACK: 1" style="edgeLabel;resizable=0;html=1;align=center;verticalAlign=middle;" connectable="0" vertex="1" parent="-29obUkqVTbiaysX2pNh-59">
          <mxGeometry relative="1" as="geometry">
            <mxPoint x="38" y="10" as="offset" />
          </mxGeometry>
        </mxCell>
        <mxCell id="-29obUkqVTbiaysX2pNh-61" value="Seq: 19626" style="edgeLabel;resizable=0;html=1;align=center;verticalAlign=middle;" connectable="0" vertex="1" parent="-29obUkqVTbiaysX2pNh-59">
          <mxGeometry relative="1" as="geometry">
            <mxPoint x="-78" y="-28" as="offset" />
          </mxGeometry>
        </mxCell>
        <mxCell id="-29obUkqVTbiaysX2pNh-62" value="" style="endArrow=classic;html=1;rounded=0;" edge="1" parent="1">
          <mxGeometry relative="1" as="geometry">
            <mxPoint x="287" y="591.9999999999999" as="sourcePoint" />
            <mxPoint x="687" y="732" as="targetPoint" />
          </mxGeometry>
        </mxCell>
        <mxCell id="-29obUkqVTbiaysX2pNh-63" value="ACK: 1" style="edgeLabel;resizable=0;html=1;align=center;verticalAlign=middle;" connectable="0" vertex="1" parent="-29obUkqVTbiaysX2pNh-62">
          <mxGeometry relative="1" as="geometry">
            <mxPoint x="38" y="11" as="offset" />
          </mxGeometry>
        </mxCell>
        <mxCell id="-29obUkqVTbiaysX2pNh-64" value="Seq: 21078" style="edgeLabel;resizable=0;html=1;align=center;verticalAlign=middle;" connectable="0" vertex="1" parent="-29obUkqVTbiaysX2pNh-62">
          <mxGeometry relative="1" as="geometry">
            <mxPoint x="-78" y="-28" as="offset" />
          </mxGeometry>
        </mxCell>
        <mxCell id="-29obUkqVTbiaysX2pNh-65" value="" style="endArrow=classic;html=1;rounded=0;" edge="1" parent="1">
          <mxGeometry relative="1" as="geometry">
            <mxPoint x="688" y="320" as="sourcePoint" />
            <mxPoint x="288" y="450" as="targetPoint" />
          </mxGeometry>
        </mxCell>
        <mxCell id="-29obUkqVTbiaysX2pNh-66" value="Seq: 1" style="edgeLabel;resizable=0;html=1;align=center;verticalAlign=middle;" connectable="0" vertex="1" parent="-29obUkqVTbiaysX2pNh-65">
          <mxGeometry relative="1" as="geometry">
            <mxPoint x="90" y="-28" as="offset" />
          </mxGeometry>
        </mxCell>
        <mxCell id="-29obUkqVTbiaysX2pNh-70" value="ACK: 750" style="edgeLabel;resizable=0;html=1;align=center;verticalAlign=middle;" connectable="0" vertex="1" parent="-29obUkqVTbiaysX2pNh-65">
          <mxGeometry relative="1" as="geometry">
            <mxPoint x="-25" y="9" as="offset" />
          </mxGeometry>
        </mxCell>
        <mxCell id="-29obUkqVTbiaysX2pNh-71" value="" style="endArrow=classic;html=1;rounded=0;" edge="1" parent="1">
          <mxGeometry relative="1" as="geometry">
            <mxPoint x="688" y="349" as="sourcePoint" />
            <mxPoint x="288" y="479" as="targetPoint" />
          </mxGeometry>
        </mxCell>
        <mxCell id="-29obUkqVTbiaysX2pNh-72" value="ACK: 2202" style="edgeLabel;resizable=0;html=1;align=center;verticalAlign=middle;" connectable="0" vertex="1" parent="-29obUkqVTbiaysX2pNh-71">
          <mxGeometry relative="1" as="geometry">
            <mxPoint x="-22" y="6" as="offset" />
          </mxGeometry>
        </mxCell>
        <mxCell id="-29obUkqVTbiaysX2pNh-73" value="Seq: 1" style="edgeLabel;resizable=0;html=1;align=center;verticalAlign=middle;" connectable="0" vertex="1" parent="-29obUkqVTbiaysX2pNh-71">
          <mxGeometry relative="1" as="geometry">
            <mxPoint x="123" y="-38" as="offset" />
          </mxGeometry>
        </mxCell>
        <mxCell id="-29obUkqVTbiaysX2pNh-76" value="" style="endArrow=classic;html=1;rounded=0;" edge="1" parent="1">
          <mxGeometry relative="1" as="geometry">
            <mxPoint x="688" y="373" as="sourcePoint" />
            <mxPoint x="288" y="538" as="targetPoint" />
          </mxGeometry>
        </mxCell>
        <mxCell id="-29obUkqVTbiaysX2pNh-77" value="ACK: 3654" style="edgeLabel;resizable=0;html=1;align=center;verticalAlign=middle;" connectable="0" vertex="1" parent="-29obUkqVTbiaysX2pNh-76">
          <mxGeometry relative="1" as="geometry" />
        </mxCell>
        <mxCell id="-29obUkqVTbiaysX2pNh-78" value="Seq: 1" style="edgeLabel;resizable=0;html=1;align=center;verticalAlign=middle;" connectable="0" vertex="1" parent="-29obUkqVTbiaysX2pNh-76">
          <mxGeometry relative="1" as="geometry">
            <mxPoint x="104" y="-38" as="offset" />
          </mxGeometry>
        </mxCell>
        <mxCell id="-29obUkqVTbiaysX2pNh-79" value="" style="endArrow=classic;html=1;rounded=0;" edge="1" parent="1">
          <mxGeometry relative="1" as="geometry">
            <mxPoint x="688" y="404" as="sourcePoint" />
            <mxPoint x="288" y="590" as="targetPoint" />
          </mxGeometry>
        </mxCell>
        <mxCell id="-29obUkqVTbiaysX2pNh-80" value="ACK: 5106" style="edgeLabel;resizable=0;html=1;align=center;verticalAlign=middle;" connectable="0" vertex="1" parent="-29obUkqVTbiaysX2pNh-79">
          <mxGeometry relative="1" as="geometry">
            <mxPoint x="-18" y="9" as="offset" />
          </mxGeometry>
        </mxCell>
        <mxCell id="-29obUkqVTbiaysX2pNh-81" value="Seq: 1" style="edgeLabel;resizable=0;html=1;align=center;verticalAlign=middle;" connectable="0" vertex="1" parent="-29obUkqVTbiaysX2pNh-79">
          <mxGeometry relative="1" as="geometry">
            <mxPoint x="113" y="-49" as="offset" />
          </mxGeometry>
        </mxCell>
        <mxCell id="-29obUkqVTbiaysX2pNh-86" value="" style="endArrow=classic;html=1;rounded=0;" edge="1" parent="1">
          <mxGeometry relative="1" as="geometry">
            <mxPoint x="288" y="620.9999999999999" as="sourcePoint" />
            <mxPoint x="688" y="761.0000000000001" as="targetPoint" />
          </mxGeometry>
        </mxCell>
        <mxCell id="-29obUkqVTbiaysX2pNh-87" value="ACK: 1" style="edgeLabel;resizable=0;html=1;align=center;verticalAlign=middle;" connectable="0" vertex="1" parent="-29obUkqVTbiaysX2pNh-86">
          <mxGeometry relative="1" as="geometry">
            <mxPoint x="38" y="11" as="offset" />
          </mxGeometry>
        </mxCell>
        <mxCell id="-29obUkqVTbiaysX2pNh-88" value="Seq: 22530" style="edgeLabel;resizable=0;html=1;align=center;verticalAlign=middle;" connectable="0" vertex="1" parent="-29obUkqVTbiaysX2pNh-86">
          <mxGeometry relative="1" as="geometry">
            <mxPoint x="-78" y="-28" as="offset" />
          </mxGeometry>
        </mxCell>
        <mxCell id="-29obUkqVTbiaysX2pNh-89" value="" style="endArrow=classic;html=1;rounded=0;" edge="1" parent="1">
          <mxGeometry relative="1" as="geometry">
            <mxPoint x="288" y="647" as="sourcePoint" />
            <mxPoint x="688" y="787" as="targetPoint" />
          </mxGeometry>
        </mxCell>
        <mxCell id="-29obUkqVTbiaysX2pNh-90" value="ACK: 1" style="edgeLabel;resizable=0;html=1;align=center;verticalAlign=middle;" connectable="0" vertex="1" parent="-29obUkqVTbiaysX2pNh-89">
          <mxGeometry relative="1" as="geometry">
            <mxPoint x="38" y="10" as="offset" />
          </mxGeometry>
        </mxCell>
        <mxCell id="-29obUkqVTbiaysX2pNh-91" value="Seq: 23982" style="edgeLabel;resizable=0;html=1;align=center;verticalAlign=middle;" connectable="0" vertex="1" parent="-29obUkqVTbiaysX2pNh-89">
          <mxGeometry relative="1" as="geometry">
            <mxPoint x="-78" y="-28" as="offset" />
          </mxGeometry>
        </mxCell>
        <mxCell id="-29obUkqVTbiaysX2pNh-92" value="" style="endArrow=classic;html=1;rounded=0;" edge="1" parent="1">
          <mxGeometry relative="1" as="geometry">
            <mxPoint x="288" y="675.9999999999999" as="sourcePoint" />
            <mxPoint x="688" y="816.0000000000001" as="targetPoint" />
          </mxGeometry>
        </mxCell>
        <mxCell id="-29obUkqVTbiaysX2pNh-93" value="ACK: 1" style="edgeLabel;resizable=0;html=1;align=center;verticalAlign=middle;" connectable="0" vertex="1" parent="-29obUkqVTbiaysX2pNh-92">
          <mxGeometry relative="1" as="geometry">
            <mxPoint x="38" y="11" as="offset" />
          </mxGeometry>
        </mxCell>
        <mxCell id="-29obUkqVTbiaysX2pNh-94" value="Seq: 25434" style="edgeLabel;resizable=0;html=1;align=center;verticalAlign=middle;" connectable="0" vertex="1" parent="-29obUkqVTbiaysX2pNh-92">
          <mxGeometry relative="1" as="geometry">
            <mxPoint x="-78" y="-28" as="offset" />
          </mxGeometry>
        </mxCell>
        <mxCell id="-29obUkqVTbiaysX2pNh-95" value="" style="endArrow=classic;html=1;rounded=0;" edge="1" parent="1">
          <mxGeometry relative="1" as="geometry">
            <mxPoint x="688" y="428" as="sourcePoint" />
            <mxPoint x="288" y="648" as="targetPoint" />
          </mxGeometry>
        </mxCell>
        <mxCell id="-29obUkqVTbiaysX2pNh-96" value="ACK: 6558" style="edgeLabel;resizable=0;html=1;align=center;verticalAlign=middle;" connectable="0" vertex="1" parent="-29obUkqVTbiaysX2pNh-95">
          <mxGeometry relative="1" as="geometry">
            <mxPoint x="-6" y="2" as="offset" />
          </mxGeometry>
        </mxCell>
        <mxCell id="-29obUkqVTbiaysX2pNh-97" value="Seq: 1" style="edgeLabel;resizable=0;html=1;align=center;verticalAlign=middle;" connectable="0" vertex="1" parent="-29obUkqVTbiaysX2pNh-95">
          <mxGeometry relative="1" as="geometry">
            <mxPoint x="91" y="-49" as="offset" />
          </mxGeometry>
        </mxCell>
        <mxCell id="-29obUkqVTbiaysX2pNh-98" value="" style="endArrow=classic;html=1;rounded=0;" edge="1" parent="1">
          <mxGeometry relative="1" as="geometry">
            <mxPoint x="688" y="458" as="sourcePoint" />
            <mxPoint x="288" y="708" as="targetPoint" />
          </mxGeometry>
        </mxCell>
        <mxCell id="-29obUkqVTbiaysX2pNh-99" value="ACK:8010" style="edgeLabel;resizable=0;html=1;align=center;verticalAlign=middle;" connectable="0" vertex="1" parent="-29obUkqVTbiaysX2pNh-98">
          <mxGeometry relative="1" as="geometry">
            <mxPoint x="-15" y="9" as="offset" />
          </mxGeometry>
        </mxCell>
        <mxCell id="-29obUkqVTbiaysX2pNh-100" value="Seq: 1" style="edgeLabel;resizable=0;html=1;align=center;verticalAlign=middle;" connectable="0" vertex="1" parent="-29obUkqVTbiaysX2pNh-98">
          <mxGeometry relative="1" as="geometry">
            <mxPoint x="105" y="-59" as="offset" />
          </mxGeometry>
        </mxCell>
        <mxCell id="-29obUkqVTbiaysX2pNh-106" value="" style="endArrow=classic;html=1;rounded=0;" edge="1" parent="1">
          <mxGeometry relative="1" as="geometry">
            <mxPoint x="288" y="707.0000000000001" as="sourcePoint" />
            <mxPoint x="688" y="847" as="targetPoint" />
          </mxGeometry>
        </mxCell>
        <mxCell id="-29obUkqVTbiaysX2pNh-107" value="ACK: 1" style="edgeLabel;resizable=0;html=1;align=center;verticalAlign=middle;" connectable="0" vertex="1" parent="-29obUkqVTbiaysX2pNh-106">
          <mxGeometry relative="1" as="geometry">
            <mxPoint x="59" y="21" as="offset" />
          </mxGeometry>
        </mxCell>
        <mxCell id="-29obUkqVTbiaysX2pNh-108" value="Seq: 26886" style="edgeLabel;resizable=0;html=1;align=center;verticalAlign=middle;" connectable="0" vertex="1" parent="-29obUkqVTbiaysX2pNh-106">
          <mxGeometry relative="1" as="geometry">
            <mxPoint x="-78" y="-28" as="offset" />
          </mxGeometry>
        </mxCell>
        <mxCell id="-29obUkqVTbiaysX2pNh-109" value="" style="endArrow=classic;html=1;rounded=0;" edge="1" parent="1">
          <mxGeometry relative="1" as="geometry">
            <mxPoint x="288" y="735.9999999999999" as="sourcePoint" />
            <mxPoint x="688" y="876" as="targetPoint" />
          </mxGeometry>
        </mxCell>
        <mxCell id="-29obUkqVTbiaysX2pNh-110" value="ACK: 1" style="edgeLabel;resizable=0;html=1;align=center;verticalAlign=middle;" connectable="0" vertex="1" parent="-29obUkqVTbiaysX2pNh-109">
          <mxGeometry relative="1" as="geometry">
            <mxPoint x="38" y="11" as="offset" />
          </mxGeometry>
        </mxCell>
        <mxCell id="-29obUkqVTbiaysX2pNh-111" value="Seq: 28338" style="edgeLabel;resizable=0;html=1;align=center;verticalAlign=middle;" connectable="0" vertex="1" parent="-29obUkqVTbiaysX2pNh-109">
          <mxGeometry relative="1" as="geometry">
            <mxPoint x="-78" y="-28" as="offset" />
          </mxGeometry>
        </mxCell>
        <mxCell id="-29obUkqVTbiaysX2pNh-112" value="" style="endArrow=classic;html=1;rounded=0;" edge="1" parent="1">
          <mxGeometry relative="1" as="geometry">
            <mxPoint x="686" y="483" as="sourcePoint" />
            <mxPoint x="288" y="767" as="targetPoint" />
          </mxGeometry>
        </mxCell>
        <mxCell id="-29obUkqVTbiaysX2pNh-113" value="ACK: 9462" style="edgeLabel;resizable=0;html=1;align=center;verticalAlign=middle;" connectable="0" vertex="1" parent="-29obUkqVTbiaysX2pNh-112">
          <mxGeometry relative="1" as="geometry" />
        </mxCell>
        <mxCell id="-29obUkqVTbiaysX2pNh-114" value="Seq: 1" style="edgeLabel;resizable=0;html=1;align=center;verticalAlign=middle;" connectable="0" vertex="1" parent="-29obUkqVTbiaysX2pNh-112">
          <mxGeometry relative="1" as="geometry">
            <mxPoint x="83" y="-55" as="offset" />
          </mxGeometry>
        </mxCell>
        <mxCell id="-29obUkqVTbiaysX2pNh-119" value="" style="endArrow=classic;html=1;rounded=0;" edge="1" parent="1">
          <mxGeometry relative="1" as="geometry">
            <mxPoint x="287" y="765.0000000000001" as="sourcePoint" />
            <mxPoint x="687" y="905" as="targetPoint" />
          </mxGeometry>
        </mxCell>
        <mxCell id="-29obUkqVTbiaysX2pNh-120" value="ACK: 1" style="edgeLabel;resizable=0;html=1;align=center;verticalAlign=middle;" connectable="0" vertex="1" parent="-29obUkqVTbiaysX2pNh-119">
          <mxGeometry relative="1" as="geometry">
            <mxPoint x="38" y="10" as="offset" />
          </mxGeometry>
        </mxCell>
        <mxCell id="-29obUkqVTbiaysX2pNh-121" value="Seq: 29790" style="edgeLabel;resizable=0;html=1;align=center;verticalAlign=middle;" connectable="0" vertex="1" parent="-29obUkqVTbiaysX2pNh-119">
          <mxGeometry relative="1" as="geometry">
            <mxPoint x="-78" y="-28" as="offset" />
          </mxGeometry>
        </mxCell>
        <mxCell id="-29obUkqVTbiaysX2pNh-122" value="" style="endArrow=classic;html=1;rounded=0;" edge="1" parent="1">
          <mxGeometry relative="1" as="geometry">
            <mxPoint x="288" y="793.9999999999999" as="sourcePoint" />
            <mxPoint x="688" y="934" as="targetPoint" />
          </mxGeometry>
        </mxCell>
        <mxCell id="-29obUkqVTbiaysX2pNh-123" value="ACK: 1" style="edgeLabel;resizable=0;html=1;align=center;verticalAlign=middle;" connectable="0" vertex="1" parent="-29obUkqVTbiaysX2pNh-122">
          <mxGeometry relative="1" as="geometry">
            <mxPoint x="38" y="11" as="offset" />
          </mxGeometry>
        </mxCell>
        <mxCell id="-29obUkqVTbiaysX2pNh-124" value="Seq: 31242" style="edgeLabel;resizable=0;html=1;align=center;verticalAlign=middle;" connectable="0" vertex="1" parent="-29obUkqVTbiaysX2pNh-122">
          <mxGeometry relative="1" as="geometry">
            <mxPoint x="-105" y="-37" as="offset" />
          </mxGeometry>
        </mxCell>
        <mxCell id="-29obUkqVTbiaysX2pNh-125" value="" style="endArrow=classic;html=1;rounded=0;" edge="1" parent="1">
          <mxGeometry relative="1" as="geometry">
            <mxPoint x="687" y="513" as="sourcePoint" />
            <mxPoint x="288" y="828" as="targetPoint" />
          </mxGeometry>
        </mxCell>
        <mxCell id="-29obUkqVTbiaysX2pNh-126" value="ACK: 10914" style="edgeLabel;resizable=0;html=1;align=center;verticalAlign=middle;" connectable="0" vertex="1" parent="-29obUkqVTbiaysX2pNh-125">
          <mxGeometry relative="1" as="geometry">
            <mxPoint x="-12" y="12" as="offset" />
          </mxGeometry>
        </mxCell>
        <mxCell id="-29obUkqVTbiaysX2pNh-127" value="Seq: 1" style="edgeLabel;resizable=0;html=1;align=center;verticalAlign=middle;" connectable="0" vertex="1" parent="-29obUkqVTbiaysX2pNh-125">
          <mxGeometry relative="1" as="geometry">
            <mxPoint x="91" y="-71" as="offset" />
          </mxGeometry>
        </mxCell>
        <mxCell id="-29obUkqVTbiaysX2pNh-131" value="" style="endArrow=classic;html=1;rounded=0;" edge="1" parent="1">
          <mxGeometry relative="1" as="geometry">
            <mxPoint x="289" y="828.0000000000002" as="sourcePoint" />
            <mxPoint x="689" y="968" as="targetPoint" />
          </mxGeometry>
        </mxCell>
        <mxCell id="-29obUkqVTbiaysX2pNh-132" value="ACK: 1" style="edgeLabel;resizable=0;html=1;align=center;verticalAlign=middle;" connectable="0" vertex="1" parent="-29obUkqVTbiaysX2pNh-131">
          <mxGeometry relative="1" as="geometry">
            <mxPoint x="38" y="10" as="offset" />
          </mxGeometry>
        </mxCell>
        <mxCell id="-29obUkqVTbiaysX2pNh-133" value="Seq: 32694" style="edgeLabel;resizable=0;html=1;align=center;verticalAlign=middle;" connectable="0" vertex="1" parent="-29obUkqVTbiaysX2pNh-131">
          <mxGeometry relative="1" as="geometry">
            <mxPoint x="-78" y="-28" as="offset" />
          </mxGeometry>
        </mxCell>
        <mxCell id="-29obUkqVTbiaysX2pNh-134" value="" style="endArrow=classic;html=1;rounded=0;" edge="1" parent="1">
          <mxGeometry relative="1" as="geometry">
            <mxPoint x="288" y="860" as="sourcePoint" />
            <mxPoint x="688" y="1000" as="targetPoint" />
          </mxGeometry>
        </mxCell>
        <mxCell id="-29obUkqVTbiaysX2pNh-135" value="ACK: 1" style="edgeLabel;resizable=0;html=1;align=center;verticalAlign=middle;" connectable="0" vertex="1" parent="-29obUkqVTbiaysX2pNh-134">
          <mxGeometry relative="1" as="geometry">
            <mxPoint x="38" y="11" as="offset" />
          </mxGeometry>
        </mxCell>
        <mxCell id="-29obUkqVTbiaysX2pNh-136" value="Seq: 34146" style="edgeLabel;resizable=0;html=1;align=center;verticalAlign=middle;" connectable="0" vertex="1" parent="-29obUkqVTbiaysX2pNh-134">
          <mxGeometry relative="1" as="geometry">
            <mxPoint x="-108" y="-38" as="offset" />
          </mxGeometry>
        </mxCell>
        <mxCell id="-29obUkqVTbiaysX2pNh-137" value="" style="endArrow=classic;html=1;rounded=0;" edge="1" parent="1">
          <mxGeometry relative="1" as="geometry">
            <mxPoint x="687" y="537" as="sourcePoint" />
            <mxPoint x="287" y="899.5062779017857" as="targetPoint" />
          </mxGeometry>
        </mxCell>
        <mxCell id="-29obUkqVTbiaysX2pNh-138" value="ACK: 12366" style="edgeLabel;resizable=0;html=1;align=center;verticalAlign=middle;" connectable="0" vertex="1" parent="-29obUkqVTbiaysX2pNh-137">
          <mxGeometry relative="1" as="geometry">
            <mxPoint x="-15" y="14" as="offset" />
          </mxGeometry>
        </mxCell>
        <mxCell id="-29obUkqVTbiaysX2pNh-139" value="Seq: 1" style="edgeLabel;resizable=0;html=1;align=center;verticalAlign=middle;" connectable="0" vertex="1" parent="-29obUkqVTbiaysX2pNh-137">
          <mxGeometry relative="1" as="geometry">
            <mxPoint x="141" y="-130" as="offset" />
          </mxGeometry>
        </mxCell>
        <mxCell id="-29obUkqVTbiaysX2pNh-140" value="" style="endArrow=classic;html=1;rounded=0;" edge="1" parent="1">
          <mxGeometry relative="1" as="geometry">
            <mxPoint x="288" y="899" as="sourcePoint" />
            <mxPoint x="688" y="1039" as="targetPoint" />
          </mxGeometry>
        </mxCell>
        <mxCell id="-29obUkqVTbiaysX2pNh-141" value="ACK: 1" style="edgeLabel;resizable=0;html=1;align=center;verticalAlign=middle;" connectable="0" vertex="1" parent="-29obUkqVTbiaysX2pNh-140">
          <mxGeometry relative="1" as="geometry">
            <mxPoint x="38" y="11" as="offset" />
          </mxGeometry>
        </mxCell>
        <mxCell id="-29obUkqVTbiaysX2pNh-142" value="Seq: 35598" style="edgeLabel;resizable=0;html=1;align=center;verticalAlign=middle;" connectable="0" vertex="1" parent="-29obUkqVTbiaysX2pNh-140">
          <mxGeometry relative="1" as="geometry">
            <mxPoint x="-104" y="-38" as="offset" />
          </mxGeometry>
        </mxCell>
        <mxCell id="-29obUkqVTbiaysX2pNh-143" value="" style="endArrow=classic;html=1;rounded=0;" edge="1" parent="1">
          <mxGeometry relative="1" as="geometry">
            <mxPoint x="288" y="932" as="sourcePoint" />
            <mxPoint x="688" y="1072" as="targetPoint" />
          </mxGeometry>
        </mxCell>
        <mxCell id="-29obUkqVTbiaysX2pNh-144" value="ACK: 1" style="edgeLabel;resizable=0;html=1;align=center;verticalAlign=middle;" connectable="0" vertex="1" parent="-29obUkqVTbiaysX2pNh-143">
          <mxGeometry relative="1" as="geometry">
            <mxPoint x="38" y="11" as="offset" />
          </mxGeometry>
        </mxCell>
        <mxCell id="-29obUkqVTbiaysX2pNh-145" value="Seq: 37050" style="edgeLabel;resizable=0;html=1;align=center;verticalAlign=middle;" connectable="0" vertex="1" parent="-29obUkqVTbiaysX2pNh-143">
          <mxGeometry relative="1" as="geometry">
            <mxPoint x="-106" y="-38" as="offset" />
          </mxGeometry>
        </mxCell>
        <mxCell id="-29obUkqVTbiaysX2pNh-146" value="" style="endArrow=classic;html=1;rounded=0;" edge="1" parent="1">
          <mxGeometry relative="1" as="geometry">
            <mxPoint x="687" y="567" as="sourcePoint" />
            <mxPoint x="288" y="970.5062779017857" as="targetPoint" />
          </mxGeometry>
        </mxCell>
        <mxCell id="-29obUkqVTbiaysX2pNh-147" value="ACK:13818" style="edgeLabel;resizable=0;html=1;align=center;verticalAlign=middle;" connectable="0" vertex="1" parent="-29obUkqVTbiaysX2pNh-146">
          <mxGeometry relative="1" as="geometry">
            <mxPoint x="-15" y="16" as="offset" />
          </mxGeometry>
        </mxCell>
        <mxCell id="-29obUkqVTbiaysX2pNh-148" value="Seq: 1" style="edgeLabel;resizable=0;html=1;align=center;verticalAlign=middle;" connectable="0" vertex="1" parent="-29obUkqVTbiaysX2pNh-146">
          <mxGeometry relative="1" as="geometry">
            <mxPoint x="90" y="-91" as="offset" />
          </mxGeometry>
        </mxCell>
        <mxCell id="-29obUkqVTbiaysX2pNh-149" value="" style="endArrow=classic;html=1;rounded=0;" edge="1" parent="1">
          <mxGeometry relative="1" as="geometry">
            <mxPoint x="289" y="971" as="sourcePoint" />
            <mxPoint x="689" y="1111" as="targetPoint" />
          </mxGeometry>
        </mxCell>
        <mxCell id="-29obUkqVTbiaysX2pNh-150" value="ACK: 1" style="edgeLabel;resizable=0;html=1;align=center;verticalAlign=middle;" connectable="0" vertex="1" parent="-29obUkqVTbiaysX2pNh-149">
          <mxGeometry relative="1" as="geometry">
            <mxPoint x="77" y="26" as="offset" />
          </mxGeometry>
        </mxCell>
        <mxCell id="-29obUkqVTbiaysX2pNh-151" value="Seq: 38502" style="edgeLabel;resizable=0;html=1;align=center;verticalAlign=middle;" connectable="0" vertex="1" parent="-29obUkqVTbiaysX2pNh-149">
          <mxGeometry relative="1" as="geometry">
            <mxPoint x="-115" y="-40" as="offset" />
          </mxGeometry>
        </mxCell>
        <mxCell id="-29obUkqVTbiaysX2pNh-152" value="" style="endArrow=classic;html=1;rounded=0;" edge="1" parent="1">
          <mxGeometry relative="1" as="geometry">
            <mxPoint x="289" y="1001" as="sourcePoint" />
            <mxPoint x="689" y="1141" as="targetPoint" />
          </mxGeometry>
        </mxCell>
        <mxCell id="-29obUkqVTbiaysX2pNh-153" value="ACK: 1" style="edgeLabel;resizable=0;html=1;align=center;verticalAlign=middle;" connectable="0" vertex="1" parent="-29obUkqVTbiaysX2pNh-152">
          <mxGeometry relative="1" as="geometry">
            <mxPoint x="72" y="25" as="offset" />
          </mxGeometry>
        </mxCell>
        <mxCell id="-29obUkqVTbiaysX2pNh-154" value="Seq: 39954" style="edgeLabel;resizable=0;html=1;align=center;verticalAlign=middle;" connectable="0" vertex="1" parent="-29obUkqVTbiaysX2pNh-152">
          <mxGeometry relative="1" as="geometry">
            <mxPoint x="-78" y="-28" as="offset" />
          </mxGeometry>
        </mxCell>
        <mxCell id="-29obUkqVTbiaysX2pNh-155" value="" style="endArrow=classic;html=1;rounded=0;" edge="1" parent="1">
          <mxGeometry relative="1" as="geometry">
            <mxPoint x="687" y="593" as="sourcePoint" />
            <mxPoint x="288" y="1042.010009765625" as="targetPoint" />
          </mxGeometry>
        </mxCell>
        <mxCell id="-29obUkqVTbiaysX2pNh-156" value="ACK: 15270" style="edgeLabel;resizable=0;html=1;align=center;verticalAlign=middle;" connectable="0" vertex="1" parent="-29obUkqVTbiaysX2pNh-155">
          <mxGeometry relative="1" as="geometry">
            <mxPoint x="-20" y="28" as="offset" />
          </mxGeometry>
        </mxCell>
        <mxCell id="-29obUkqVTbiaysX2pNh-157" value="Seq: 1" style="edgeLabel;resizable=0;html=1;align=center;verticalAlign=middle;" connectable="0" vertex="1" parent="-29obUkqVTbiaysX2pNh-155">
          <mxGeometry relative="1" as="geometry">
            <mxPoint x="90" y="-109" as="offset" />
          </mxGeometry>
        </mxCell>
        <mxCell id="-29obUkqVTbiaysX2pNh-158" value="" style="endArrow=classic;html=1;rounded=0;" edge="1" parent="1">
          <mxGeometry relative="1" as="geometry">
            <mxPoint x="289" y="1042" as="sourcePoint" />
            <mxPoint x="689" y="1182" as="targetPoint" />
          </mxGeometry>
        </mxCell>
        <mxCell id="-29obUkqVTbiaysX2pNh-159" value="ACK: 1" style="edgeLabel;resizable=0;html=1;align=center;verticalAlign=middle;" connectable="0" vertex="1" parent="-29obUkqVTbiaysX2pNh-158">
          <mxGeometry relative="1" as="geometry">
            <mxPoint x="83" y="29" as="offset" />
          </mxGeometry>
        </mxCell>
        <mxCell id="-29obUkqVTbiaysX2pNh-160" value="Seq: 41406" style="edgeLabel;resizable=0;html=1;align=center;verticalAlign=middle;" connectable="0" vertex="1" parent="-29obUkqVTbiaysX2pNh-158">
          <mxGeometry relative="1" as="geometry">
            <mxPoint x="-78" y="-28" as="offset" />
          </mxGeometry>
        </mxCell>
        <mxCell id="-29obUkqVTbiaysX2pNh-161" value="" style="endArrow=classic;html=1;rounded=0;" edge="1" parent="1">
          <mxGeometry relative="1" as="geometry">
            <mxPoint x="288" y="1071" as="sourcePoint" />
            <mxPoint x="688" y="1211" as="targetPoint" />
          </mxGeometry>
        </mxCell>
        <mxCell id="-29obUkqVTbiaysX2pNh-162" value="ACK: 1" style="edgeLabel;resizable=0;html=1;align=center;verticalAlign=middle;" connectable="0" vertex="1" parent="-29obUkqVTbiaysX2pNh-161">
          <mxGeometry relative="1" as="geometry">
            <mxPoint x="38" y="11" as="offset" />
          </mxGeometry>
        </mxCell>
        <mxCell id="-29obUkqVTbiaysX2pNh-163" value="Seq: 42858" style="edgeLabel;resizable=0;html=1;align=center;verticalAlign=middle;" connectable="0" vertex="1" parent="-29obUkqVTbiaysX2pNh-161">
          <mxGeometry relative="1" as="geometry">
            <mxPoint x="-78" y="-28" as="offset" />
          </mxGeometry>
        </mxCell>
        <mxCell id="-29obUkqVTbiaysX2pNh-164" value="" style="endArrow=classic;html=1;rounded=0;" edge="1" parent="1">
          <mxGeometry relative="1" as="geometry">
            <mxPoint x="687" y="622" as="sourcePoint" />
            <mxPoint x="287" y="1106.010009765625" as="targetPoint" />
          </mxGeometry>
        </mxCell>
        <mxCell id="-29obUkqVTbiaysX2pNh-165" value="ACK: 16722" style="edgeLabel;resizable=0;html=1;align=center;verticalAlign=middle;" connectable="0" vertex="1" parent="-29obUkqVTbiaysX2pNh-164">
          <mxGeometry relative="1" as="geometry">
            <mxPoint x="-29" y="37" as="offset" />
          </mxGeometry>
        </mxCell>
        <mxCell id="-29obUkqVTbiaysX2pNh-166" value="Seq: 1" style="edgeLabel;resizable=0;html=1;align=center;verticalAlign=middle;" connectable="0" vertex="1" parent="-29obUkqVTbiaysX2pNh-164">
          <mxGeometry relative="1" as="geometry">
            <mxPoint x="101" y="-126" as="offset" />
          </mxGeometry>
        </mxCell>
        <mxCell id="-29obUkqVTbiaysX2pNh-167" value="" style="endArrow=classic;html=1;rounded=0;" edge="1" parent="1">
          <mxGeometry relative="1" as="geometry">
            <mxPoint x="288" y="1105" as="sourcePoint" />
            <mxPoint x="688" y="1245" as="targetPoint" />
          </mxGeometry>
        </mxCell>
        <mxCell id="-29obUkqVTbiaysX2pNh-168" value="ACK: 1" style="edgeLabel;resizable=0;html=1;align=center;verticalAlign=middle;" connectable="0" vertex="1" parent="-29obUkqVTbiaysX2pNh-167">
          <mxGeometry relative="1" as="geometry">
            <mxPoint x="38" y="11" as="offset" />
          </mxGeometry>
        </mxCell>
        <mxCell id="-29obUkqVTbiaysX2pNh-169" value="Seq: 44310" style="edgeLabel;resizable=0;html=1;align=center;verticalAlign=middle;" connectable="0" vertex="1" parent="-29obUkqVTbiaysX2pNh-167">
          <mxGeometry relative="1" as="geometry">
            <mxPoint x="-78" y="-28" as="offset" />
          </mxGeometry>
        </mxCell>
        <mxCell id="-29obUkqVTbiaysX2pNh-170" value="" style="endArrow=classic;html=1;rounded=0;" edge="1" parent="1">
          <mxGeometry relative="1" as="geometry">
            <mxPoint x="288" y="1133" as="sourcePoint" />
            <mxPoint x="688" y="1273" as="targetPoint" />
          </mxGeometry>
        </mxCell>
        <mxCell id="-29obUkqVTbiaysX2pNh-171" value="ACK: 1" style="edgeLabel;resizable=0;html=1;align=center;verticalAlign=middle;" connectable="0" vertex="1" parent="-29obUkqVTbiaysX2pNh-170">
          <mxGeometry relative="1" as="geometry">
            <mxPoint x="38" y="11" as="offset" />
          </mxGeometry>
        </mxCell>
        <mxCell id="-29obUkqVTbiaysX2pNh-172" value="Seq: 45762" style="edgeLabel;resizable=0;html=1;align=center;verticalAlign=middle;" connectable="0" vertex="1" parent="-29obUkqVTbiaysX2pNh-170">
          <mxGeometry relative="1" as="geometry">
            <mxPoint x="-78" y="-28" as="offset" />
          </mxGeometry>
        </mxCell>
        <mxCell id="-29obUkqVTbiaysX2pNh-173" value="" style="endArrow=classic;html=1;rounded=0;" edge="1" parent="1">
          <mxGeometry relative="1" as="geometry">
            <mxPoint x="688" y="648" as="sourcePoint" />
            <mxPoint x="288" y="1160.0050048828125" as="targetPoint" />
          </mxGeometry>
        </mxCell>
        <mxCell id="-29obUkqVTbiaysX2pNh-174" value="ACK: 18174" style="edgeLabel;resizable=0;html=1;align=center;verticalAlign=middle;" connectable="0" vertex="1" parent="-29obUkqVTbiaysX2pNh-173">
          <mxGeometry relative="1" as="geometry">
            <mxPoint x="-25" y="38" as="offset" />
          </mxGeometry>
        </mxCell>
        <mxCell id="-29obUkqVTbiaysX2pNh-175" value="Seq: 1" style="edgeLabel;resizable=0;html=1;align=center;verticalAlign=middle;" connectable="0" vertex="1" parent="-29obUkqVTbiaysX2pNh-173">
          <mxGeometry relative="1" as="geometry">
            <mxPoint x="150" y="-196" as="offset" />
          </mxGeometry>
        </mxCell>
        <mxCell id="-29obUkqVTbiaysX2pNh-176" value="" style="endArrow=classic;html=1;rounded=0;" edge="1" parent="1">
          <mxGeometry relative="1" as="geometry">
            <mxPoint x="289" y="1161" as="sourcePoint" />
            <mxPoint x="689" y="1301" as="targetPoint" />
          </mxGeometry>
        </mxCell>
        <mxCell id="-29obUkqVTbiaysX2pNh-177" value="ACK: 1" style="edgeLabel;resizable=0;html=1;align=center;verticalAlign=middle;" connectable="0" vertex="1" parent="-29obUkqVTbiaysX2pNh-176">
          <mxGeometry relative="1" as="geometry">
            <mxPoint x="38" y="11" as="offset" />
          </mxGeometry>
        </mxCell>
        <mxCell id="-29obUkqVTbiaysX2pNh-178" value="Seq: 47214" style="edgeLabel;resizable=0;html=1;align=center;verticalAlign=middle;" connectable="0" vertex="1" parent="-29obUkqVTbiaysX2pNh-176">
          <mxGeometry relative="1" as="geometry">
            <mxPoint x="-78" y="-28" as="offset" />
          </mxGeometry>
        </mxCell>
        <mxCell id="-29obUkqVTbiaysX2pNh-179" value="" style="endArrow=classic;html=1;rounded=0;" edge="1" parent="1">
          <mxGeometry relative="1" as="geometry">
            <mxPoint x="289" y="1188" as="sourcePoint" />
            <mxPoint x="689" y="1328" as="targetPoint" />
          </mxGeometry>
        </mxCell>
        <mxCell id="-29obUkqVTbiaysX2pNh-180" value="ACK: 1" style="edgeLabel;resizable=0;html=1;align=center;verticalAlign=middle;" connectable="0" vertex="1" parent="-29obUkqVTbiaysX2pNh-179">
          <mxGeometry relative="1" as="geometry">
            <mxPoint x="38" y="11" as="offset" />
          </mxGeometry>
        </mxCell>
        <mxCell id="-29obUkqVTbiaysX2pNh-181" value="Seq: 48666" style="edgeLabel;resizable=0;html=1;align=center;verticalAlign=middle;" connectable="0" vertex="1" parent="-29obUkqVTbiaysX2pNh-179">
          <mxGeometry relative="1" as="geometry">
            <mxPoint x="-78" y="-28" as="offset" />
          </mxGeometry>
        </mxCell>
        <mxCell id="-29obUkqVTbiaysX2pNh-182" value="" style="endArrow=classic;html=1;rounded=0;" edge="1" parent="1">
          <mxGeometry relative="1" as="geometry">
            <mxPoint x="687" y="678" as="sourcePoint" />
            <mxPoint x="287" y="1218" as="targetPoint" />
          </mxGeometry>
        </mxCell>
        <mxCell id="-29obUkqVTbiaysX2pNh-183" value="ACK: 19626" style="edgeLabel;resizable=0;html=1;align=center;verticalAlign=middle;" connectable="0" vertex="1" parent="-29obUkqVTbiaysX2pNh-182">
          <mxGeometry relative="1" as="geometry">
            <mxPoint x="-23" y="29" as="offset" />
          </mxGeometry>
        </mxCell>
        <mxCell id="-29obUkqVTbiaysX2pNh-184" value="Seq: 1" style="edgeLabel;resizable=0;html=1;align=center;verticalAlign=middle;" connectable="0" vertex="1" parent="-29obUkqVTbiaysX2pNh-182">
          <mxGeometry relative="1" as="geometry">
            <mxPoint x="142" y="-194" as="offset" />
          </mxGeometry>
        </mxCell>
        <mxCell id="-29obUkqVTbiaysX2pNh-185" value="" style="endArrow=classic;html=1;rounded=0;" edge="1" parent="1">
          <mxGeometry relative="1" as="geometry">
            <mxPoint x="687" y="703" as="sourcePoint" />
            <mxPoint x="288" y="1248" as="targetPoint" />
          </mxGeometry>
        </mxCell>
        <mxCell id="-29obUkqVTbiaysX2pNh-186" value="ACK: 21078" style="edgeLabel;resizable=0;html=1;align=center;verticalAlign=middle;" connectable="0" vertex="1" parent="-29obUkqVTbiaysX2pNh-185">
          <mxGeometry relative="1" as="geometry">
            <mxPoint x="-20" y="38" as="offset" />
          </mxGeometry>
        </mxCell>
        <mxCell id="-29obUkqVTbiaysX2pNh-187" value="Seq: 1" style="edgeLabel;resizable=0;html=1;align=center;verticalAlign=middle;" connectable="0" vertex="1" parent="-29obUkqVTbiaysX2pNh-185">
          <mxGeometry relative="1" as="geometry">
            <mxPoint x="113" y="-146" as="offset" />
          </mxGeometry>
        </mxCell>
        <mxCell id="-29obUkqVTbiaysX2pNh-188" value="" style="endArrow=classic;html=1;rounded=0;" edge="1" parent="1">
          <mxGeometry relative="1" as="geometry">
            <mxPoint x="289" y="1248" as="sourcePoint" />
            <mxPoint x="689" y="1388" as="targetPoint" />
          </mxGeometry>
        </mxCell>
        <mxCell id="-29obUkqVTbiaysX2pNh-189" value="ACK: 1" style="edgeLabel;resizable=0;html=1;align=center;verticalAlign=middle;" connectable="0" vertex="1" parent="-29obUkqVTbiaysX2pNh-188">
          <mxGeometry relative="1" as="geometry">
            <mxPoint x="38" y="11" as="offset" />
          </mxGeometry>
        </mxCell>
        <mxCell id="-29obUkqVTbiaysX2pNh-190" value="Seq: 50118" style="edgeLabel;resizable=0;html=1;align=center;verticalAlign=middle;" connectable="0" vertex="1" parent="-29obUkqVTbiaysX2pNh-188">
          <mxGeometry relative="1" as="geometry">
            <mxPoint x="-78" y="-28" as="offset" />
          </mxGeometry>
        </mxCell>
        <mxCell id="-29obUkqVTbiaysX2pNh-191" value="" style="endArrow=classic;html=1;rounded=0;" edge="1" parent="1">
          <mxGeometry relative="1" as="geometry">
            <mxPoint x="289" y="1278" as="sourcePoint" />
            <mxPoint x="689" y="1418" as="targetPoint" />
          </mxGeometry>
        </mxCell>
        <mxCell id="-29obUkqVTbiaysX2pNh-192" value="ACK: 1" style="edgeLabel;resizable=0;html=1;align=center;verticalAlign=middle;" connectable="0" vertex="1" parent="-29obUkqVTbiaysX2pNh-191">
          <mxGeometry relative="1" as="geometry">
            <mxPoint x="51" y="18" as="offset" />
          </mxGeometry>
        </mxCell>
        <mxCell id="-29obUkqVTbiaysX2pNh-193" value="Seq: 51570" style="edgeLabel;resizable=0;html=1;align=center;verticalAlign=middle;" connectable="0" vertex="1" parent="-29obUkqVTbiaysX2pNh-191">
          <mxGeometry relative="1" as="geometry">
            <mxPoint x="-78" y="-28" as="offset" />
          </mxGeometry>
        </mxCell>
        <mxCell id="-29obUkqVTbiaysX2pNh-194" value="" style="endArrow=classic;html=1;rounded=0;" edge="1" parent="1">
          <mxGeometry relative="1" as="geometry">
            <mxPoint x="289" y="1307" as="sourcePoint" />
            <mxPoint x="689" y="1447" as="targetPoint" />
          </mxGeometry>
        </mxCell>
        <mxCell id="-29obUkqVTbiaysX2pNh-195" value="ACK: 1" style="edgeLabel;resizable=0;html=1;align=center;verticalAlign=middle;" connectable="0" vertex="1" parent="-29obUkqVTbiaysX2pNh-194">
          <mxGeometry relative="1" as="geometry">
            <mxPoint x="38" y="11" as="offset" />
          </mxGeometry>
        </mxCell>
        <mxCell id="-29obUkqVTbiaysX2pNh-196" value="Seq: 53022" style="edgeLabel;resizable=0;html=1;align=center;verticalAlign=middle;" connectable="0" vertex="1" parent="-29obUkqVTbiaysX2pNh-194">
          <mxGeometry relative="1" as="geometry">
            <mxPoint x="-78" y="-28" as="offset" />
          </mxGeometry>
        </mxCell>
        <mxCell id="-29obUkqVTbiaysX2pNh-197" value="" style="endArrow=classic;html=1;rounded=0;" edge="1" parent="1">
          <mxGeometry relative="1" as="geometry">
            <mxPoint x="289" y="1337" as="sourcePoint" />
            <mxPoint x="689" y="1477" as="targetPoint" />
          </mxGeometry>
        </mxCell>
        <mxCell id="-29obUkqVTbiaysX2pNh-198" value="ACK: 1" style="edgeLabel;resizable=0;html=1;align=center;verticalAlign=middle;" connectable="0" vertex="1" parent="-29obUkqVTbiaysX2pNh-197">
          <mxGeometry relative="1" as="geometry">
            <mxPoint x="38" y="11" as="offset" />
          </mxGeometry>
        </mxCell>
        <mxCell id="-29obUkqVTbiaysX2pNh-199" value="Seq: 54474" style="edgeLabel;resizable=0;html=1;align=center;verticalAlign=middle;" connectable="0" vertex="1" parent="-29obUkqVTbiaysX2pNh-197">
          <mxGeometry relative="1" as="geometry">
            <mxPoint x="-78" y="-28" as="offset" />
          </mxGeometry>
        </mxCell>
        <mxCell id="-29obUkqVTbiaysX2pNh-200" value="" style="endArrow=classic;html=1;rounded=0;" edge="1" parent="1">
          <mxGeometry relative="1" as="geometry">
            <mxPoint x="686" y="732" as="sourcePoint" />
            <mxPoint x="287" y="1369.0050048828125" as="targetPoint" />
          </mxGeometry>
        </mxCell>
        <mxCell id="-29obUkqVTbiaysX2pNh-201" value="ACK: 22530" style="edgeLabel;resizable=0;html=1;align=center;verticalAlign=middle;" connectable="0" vertex="1" parent="-29obUkqVTbiaysX2pNh-200">
          <mxGeometry relative="1" as="geometry">
            <mxPoint x="-5" y="11" as="offset" />
          </mxGeometry>
        </mxCell>
        <mxCell id="-29obUkqVTbiaysX2pNh-202" value="Seq: 1" style="edgeLabel;resizable=0;html=1;align=center;verticalAlign=middle;" connectable="0" vertex="1" parent="-29obUkqVTbiaysX2pNh-200">
          <mxGeometry relative="1" as="geometry">
            <mxPoint x="104" y="-166" as="offset" />
          </mxGeometry>
        </mxCell>
        <mxCell id="-29obUkqVTbiaysX2pNh-203" value="" style="endArrow=classic;html=1;rounded=0;" edge="1" parent="1">
          <mxGeometry relative="1" as="geometry">
            <mxPoint x="687" y="761" as="sourcePoint" />
            <mxPoint x="288" y="1390.0050048828125" as="targetPoint" />
          </mxGeometry>
        </mxCell>
        <mxCell id="-29obUkqVTbiaysX2pNh-204" value="ACK: 23982" style="edgeLabel;resizable=0;html=1;align=center;verticalAlign=middle;" connectable="0" vertex="1" parent="-29obUkqVTbiaysX2pNh-203">
          <mxGeometry relative="1" as="geometry">
            <mxPoint x="-4" y="16" as="offset" />
          </mxGeometry>
        </mxCell>
        <mxCell id="-29obUkqVTbiaysX2pNh-205" value="Seq: 1" style="edgeLabel;resizable=0;html=1;align=center;verticalAlign=middle;" connectable="0" vertex="1" parent="-29obUkqVTbiaysX2pNh-203">
          <mxGeometry relative="1" as="geometry">
            <mxPoint x="136" y="-209" as="offset" />
          </mxGeometry>
        </mxCell>
        <mxCell id="-29obUkqVTbiaysX2pNh-206" value="" style="endArrow=classic;html=1;rounded=0;" edge="1" parent="1">
          <mxGeometry relative="1" as="geometry">
            <mxPoint x="687" y="788" as="sourcePoint" />
            <mxPoint x="288" y="1419.0024588448662" as="targetPoint" />
          </mxGeometry>
        </mxCell>
        <mxCell id="-29obUkqVTbiaysX2pNh-207" value="ACK: 25434" style="edgeLabel;resizable=0;html=1;align=center;verticalAlign=middle;" connectable="0" vertex="1" parent="-29obUkqVTbiaysX2pNh-206">
          <mxGeometry relative="1" as="geometry">
            <mxPoint x="-10" y="21" as="offset" />
          </mxGeometry>
        </mxCell>
        <mxCell id="-29obUkqVTbiaysX2pNh-208" value="Seq: 1" style="edgeLabel;resizable=0;html=1;align=center;verticalAlign=middle;" connectable="0" vertex="1" parent="-29obUkqVTbiaysX2pNh-206">
          <mxGeometry relative="1" as="geometry">
            <mxPoint x="100" y="-153" as="offset" />
          </mxGeometry>
        </mxCell>
        <mxCell id="-29obUkqVTbiaysX2pNh-209" value="" style="endArrow=classic;html=1;rounded=0;" edge="1" parent="1">
          <mxGeometry relative="1" as="geometry">
            <mxPoint x="289" y="1419" as="sourcePoint" />
            <mxPoint x="689" y="1559" as="targetPoint" />
          </mxGeometry>
        </mxCell>
        <mxCell id="-29obUkqVTbiaysX2pNh-210" value="ACK: 1" style="edgeLabel;resizable=0;html=1;align=center;verticalAlign=middle;" connectable="0" vertex="1" parent="-29obUkqVTbiaysX2pNh-209">
          <mxGeometry relative="1" as="geometry">
            <mxPoint x="38" y="11" as="offset" />
          </mxGeometry>
        </mxCell>
        <mxCell id="-29obUkqVTbiaysX2pNh-211" value="Seq: 55926" style="edgeLabel;resizable=0;html=1;align=center;verticalAlign=middle;" connectable="0" vertex="1" parent="-29obUkqVTbiaysX2pNh-209">
          <mxGeometry relative="1" as="geometry">
            <mxPoint x="-78" y="-28" as="offset" />
          </mxGeometry>
        </mxCell>
        <mxCell id="-29obUkqVTbiaysX2pNh-212" value="" style="endArrow=classic;html=1;rounded=0;" edge="1" parent="1">
          <mxGeometry relative="1" as="geometry">
            <mxPoint x="288" y="1444.9999999999998" as="sourcePoint" />
            <mxPoint x="688" y="1584.9999999999998" as="targetPoint" />
          </mxGeometry>
        </mxCell>
        <mxCell id="-29obUkqVTbiaysX2pNh-213" value="ACK: 1" style="edgeLabel;resizable=0;html=1;align=center;verticalAlign=middle;" connectable="0" vertex="1" parent="-29obUkqVTbiaysX2pNh-212">
          <mxGeometry relative="1" as="geometry">
            <mxPoint x="118" y="41" as="offset" />
          </mxGeometry>
        </mxCell>
        <mxCell id="-29obUkqVTbiaysX2pNh-214" value="Seq: 57378" style="edgeLabel;resizable=0;html=1;align=center;verticalAlign=middle;" connectable="0" vertex="1" parent="-29obUkqVTbiaysX2pNh-212">
          <mxGeometry relative="1" as="geometry">
            <mxPoint x="-78" y="-28" as="offset" />
          </mxGeometry>
        </mxCell>
        <mxCell id="-29obUkqVTbiaysX2pNh-215" value="" style="endArrow=classic;html=1;rounded=0;" edge="1" parent="1">
          <mxGeometry relative="1" as="geometry">
            <mxPoint x="289" y="1471" as="sourcePoint" />
            <mxPoint x="689" y="1611" as="targetPoint" />
          </mxGeometry>
        </mxCell>
        <mxCell id="-29obUkqVTbiaysX2pNh-216" value="ACK: 1" style="edgeLabel;resizable=0;html=1;align=center;verticalAlign=middle;" connectable="0" vertex="1" parent="-29obUkqVTbiaysX2pNh-215">
          <mxGeometry relative="1" as="geometry">
            <mxPoint x="38" y="11" as="offset" />
          </mxGeometry>
        </mxCell>
        <mxCell id="-29obUkqVTbiaysX2pNh-217" value="Seq: 58830" style="edgeLabel;resizable=0;html=1;align=center;verticalAlign=middle;" connectable="0" vertex="1" parent="-29obUkqVTbiaysX2pNh-215">
          <mxGeometry relative="1" as="geometry">
            <mxPoint x="-78" y="-28" as="offset" />
          </mxGeometry>
        </mxCell>
        <mxCell id="-29obUkqVTbiaysX2pNh-218" value="" style="endArrow=classic;html=1;rounded=0;" edge="1" parent="1">
          <mxGeometry relative="1" as="geometry">
            <mxPoint x="288" y="1496" as="sourcePoint" />
            <mxPoint x="688" y="1636" as="targetPoint" />
          </mxGeometry>
        </mxCell>
        <mxCell id="-29obUkqVTbiaysX2pNh-219" value="ACK: 1" style="edgeLabel;resizable=0;html=1;align=center;verticalAlign=middle;" connectable="0" vertex="1" parent="-29obUkqVTbiaysX2pNh-218">
          <mxGeometry relative="1" as="geometry">
            <mxPoint x="38" y="11" as="offset" />
          </mxGeometry>
        </mxCell>
        <mxCell id="-29obUkqVTbiaysX2pNh-220" value="Seq: 60282" style="edgeLabel;resizable=0;html=1;align=center;verticalAlign=middle;" connectable="0" vertex="1" parent="-29obUkqVTbiaysX2pNh-218">
          <mxGeometry relative="1" as="geometry">
            <mxPoint x="-78" y="-28" as="offset" />
          </mxGeometry>
        </mxCell>
        <mxCell id="-29obUkqVTbiaysX2pNh-221" value="" style="endArrow=classic;html=1;rounded=0;" edge="1" parent="1">
          <mxGeometry relative="1" as="geometry">
            <mxPoint x="288" y="1520" as="sourcePoint" />
            <mxPoint x="688" y="1660" as="targetPoint" />
          </mxGeometry>
        </mxCell>
        <mxCell id="-29obUkqVTbiaysX2pNh-222" value="ACK: 1" style="edgeLabel;resizable=0;html=1;align=center;verticalAlign=middle;" connectable="0" vertex="1" parent="-29obUkqVTbiaysX2pNh-221">
          <mxGeometry relative="1" as="geometry">
            <mxPoint x="38" y="11" as="offset" />
          </mxGeometry>
        </mxCell>
        <mxCell id="-29obUkqVTbiaysX2pNh-223" value="Seq: 61734" style="edgeLabel;resizable=0;html=1;align=center;verticalAlign=middle;" connectable="0" vertex="1" parent="-29obUkqVTbiaysX2pNh-221">
          <mxGeometry relative="1" as="geometry">
            <mxPoint x="-78" y="-28" as="offset" />
          </mxGeometry>
        </mxCell>
        <mxCell id="-29obUkqVTbiaysX2pNh-224" value="" style="endArrow=classic;html=1;rounded=0;" edge="1" parent="1">
          <mxGeometry relative="1" as="geometry">
            <mxPoint x="288" y="1545" as="sourcePoint" />
            <mxPoint x="688" y="1685" as="targetPoint" />
          </mxGeometry>
        </mxCell>
        <mxCell id="-29obUkqVTbiaysX2pNh-225" value="ACK: 1" style="edgeLabel;resizable=0;html=1;align=center;verticalAlign=middle;" connectable="0" vertex="1" parent="-29obUkqVTbiaysX2pNh-224">
          <mxGeometry relative="1" as="geometry">
            <mxPoint x="38" y="11" as="offset" />
          </mxGeometry>
        </mxCell>
        <mxCell id="-29obUkqVTbiaysX2pNh-226" value="Seq: 63186" style="edgeLabel;resizable=0;html=1;align=center;verticalAlign=middle;" connectable="0" vertex="1" parent="-29obUkqVTbiaysX2pNh-224">
          <mxGeometry relative="1" as="geometry">
            <mxPoint x="-78" y="-28" as="offset" />
          </mxGeometry>
        </mxCell>
        <mxCell id="-29obUkqVTbiaysX2pNh-227" value="" style="endArrow=classic;html=1;rounded=0;" edge="1" parent="1">
          <mxGeometry relative="1" as="geometry">
            <mxPoint x="686" y="817" as="sourcePoint" />
            <mxPoint x="288" y="1579.0023716517858" as="targetPoint" />
          </mxGeometry>
        </mxCell>
        <mxCell id="-29obUkqVTbiaysX2pNh-228" value="ACK: 26886" style="edgeLabel;resizable=0;html=1;align=center;verticalAlign=middle;" connectable="0" vertex="1" parent="-29obUkqVTbiaysX2pNh-227">
          <mxGeometry relative="1" as="geometry">
            <mxPoint x="-34" y="69" as="offset" />
          </mxGeometry>
        </mxCell>
        <mxCell id="-29obUkqVTbiaysX2pNh-229" value="Seq: 1" style="edgeLabel;resizable=0;html=1;align=center;verticalAlign=middle;" connectable="0" vertex="1" parent="-29obUkqVTbiaysX2pNh-227">
          <mxGeometry relative="1" as="geometry">
            <mxPoint x="111" y="-200" as="offset" />
          </mxGeometry>
        </mxCell>
        <mxCell id="-29obUkqVTbiaysX2pNh-230" value="" style="endArrow=classic;html=1;rounded=0;" edge="1" parent="1">
          <mxGeometry relative="1" as="geometry">
            <mxPoint x="687" y="877" as="sourcePoint" />
            <mxPoint x="290" y="1600" as="targetPoint" />
          </mxGeometry>
        </mxCell>
        <mxCell id="-29obUkqVTbiaysX2pNh-231" value="ACK: 29790" style="edgeLabel;resizable=0;html=1;align=center;verticalAlign=middle;" connectable="0" vertex="1" parent="-29obUkqVTbiaysX2pNh-230">
          <mxGeometry relative="1" as="geometry">
            <mxPoint x="-100" y="195" as="offset" />
          </mxGeometry>
        </mxCell>
        <mxCell id="-29obUkqVTbiaysX2pNh-232" value="Seq: 1" style="edgeLabel;resizable=0;html=1;align=center;verticalAlign=middle;" connectable="0" vertex="1" parent="-29obUkqVTbiaysX2pNh-230">
          <mxGeometry relative="1" as="geometry">
            <mxPoint x="107" y="-198" as="offset" />
          </mxGeometry>
        </mxCell>
        <mxCell id="-29obUkqVTbiaysX2pNh-233" value="" style="endArrow=classic;html=1;rounded=0;" edge="1" parent="1">
          <mxGeometry relative="1" as="geometry">
            <mxPoint x="289" y="1598" as="sourcePoint" />
            <mxPoint x="689" y="1738" as="targetPoint" />
          </mxGeometry>
        </mxCell>
        <mxCell id="-29obUkqVTbiaysX2pNh-234" value="ACK: 1" style="edgeLabel;resizable=0;html=1;align=center;verticalAlign=middle;" connectable="0" vertex="1" parent="-29obUkqVTbiaysX2pNh-233">
          <mxGeometry relative="1" as="geometry">
            <mxPoint x="38" y="11" as="offset" />
          </mxGeometry>
        </mxCell>
        <mxCell id="-29obUkqVTbiaysX2pNh-235" value="Seq: 64638" style="edgeLabel;resizable=0;html=1;align=center;verticalAlign=middle;" connectable="0" vertex="1" parent="-29obUkqVTbiaysX2pNh-233">
          <mxGeometry relative="1" as="geometry">
            <mxPoint x="-78" y="-28" as="offset" />
          </mxGeometry>
        </mxCell>
        <mxCell id="-29obUkqVTbiaysX2pNh-236" value="" style="endArrow=classic;html=1;rounded=0;" edge="1" parent="1">
          <mxGeometry relative="1" as="geometry">
            <mxPoint x="288" y="138" as="sourcePoint" />
            <mxPoint x="688" y="188" as="targetPoint" />
          </mxGeometry>
        </mxCell>
        <mxCell id="-29obUkqVTbiaysX2pNh-237" value="Seq: 0" style="edgeLabel;resizable=0;html=1;align=center;verticalAlign=middle;" connectable="0" vertex="1" parent="-29obUkqVTbiaysX2pNh-236">
          <mxGeometry relative="1" as="geometry" />
        </mxCell>
        <mxCell id="-29obUkqVTbiaysX2pNh-238" value="" style="endArrow=classic;html=1;rounded=0;" edge="1" parent="1">
          <mxGeometry relative="1" as="geometry">
            <mxPoint x="688" y="188" as="sourcePoint" />
            <mxPoint x="288" y="168" as="targetPoint" />
          </mxGeometry>
        </mxCell>
        <mxCell id="-29obUkqVTbiaysX2pNh-239" value="Seq: 0" style="edgeLabel;resizable=0;html=1;align=center;verticalAlign=middle;" connectable="0" vertex="1" parent="-29obUkqVTbiaysX2pNh-238">
          <mxGeometry relative="1" as="geometry" />
        </mxCell>
        <mxCell id="-29obUkqVTbiaysX2pNh-240" value="ACK: 1" style="edgeLabel;resizable=0;html=1;align=center;verticalAlign=middle;" connectable="0" vertex="1" parent="-29obUkqVTbiaysX2pNh-238">
          <mxGeometry relative="1" as="geometry">
            <mxPoint x="-70" y="-5" as="offset" />
          </mxGeometry>
        </mxCell>
        <mxCell id="-29obUkqVTbiaysX2pNh-241" value="" style="endArrow=classic;html=1;rounded=0;" edge="1" parent="1">
          <mxGeometry relative="1" as="geometry">
            <mxPoint x="288" y="168" as="sourcePoint" />
            <mxPoint x="688" y="238" as="targetPoint" />
          </mxGeometry>
        </mxCell>
        <mxCell id="-29obUkqVTbiaysX2pNh-242" value="Seq: 1" style="edgeLabel;resizable=0;html=1;align=center;verticalAlign=middle;" connectable="0" vertex="1" parent="-29obUkqVTbiaysX2pNh-241">
          <mxGeometry relative="1" as="geometry">
            <mxPoint x="-40" y="-5" as="offset" />
          </mxGeometry>
        </mxCell>
        <mxCell id="-29obUkqVTbiaysX2pNh-243" value="ACK: 1" style="edgeLabel;resizable=0;html=1;align=center;verticalAlign=middle;" connectable="0" vertex="1" parent="-29obUkqVTbiaysX2pNh-241">
          <mxGeometry relative="1" as="geometry">
            <mxPoint x="40" y="5" as="offset" />
          </mxGeometry>
        </mxCell>
        <mxCell id="-29obUkqVTbiaysX2pNh-244" value="" style="endArrow=classic;html=1;rounded=0;" edge="1" parent="1">
          <mxGeometry relative="1" as="geometry">
            <mxPoint x="288" y="1629" as="sourcePoint" />
            <mxPoint x="688" y="1769.0000000000005" as="targetPoint" />
          </mxGeometry>
        </mxCell>
        <mxCell id="-29obUkqVTbiaysX2pNh-245" value="ACK: 1" style="edgeLabel;resizable=0;html=1;align=center;verticalAlign=middle;" connectable="0" vertex="1" parent="-29obUkqVTbiaysX2pNh-244">
          <mxGeometry relative="1" as="geometry">
            <mxPoint x="38" y="11" as="offset" />
          </mxGeometry>
        </mxCell>
        <mxCell id="-29obUkqVTbiaysX2pNh-246" value="Seq: 66090" style="edgeLabel;resizable=0;html=1;align=center;verticalAlign=middle;" connectable="0" vertex="1" parent="-29obUkqVTbiaysX2pNh-244">
          <mxGeometry relative="1" as="geometry">
            <mxPoint x="-78" y="-28" as="offset" />
          </mxGeometry>
        </mxCell>
        <mxCell id="-29obUkqVTbiaysX2pNh-247" value="" style="endArrow=classic;html=1;rounded=0;" edge="1" parent="1">
          <mxGeometry relative="1" as="geometry">
            <mxPoint x="288" y="1659" as="sourcePoint" />
            <mxPoint x="688" y="1799.0000000000005" as="targetPoint" />
          </mxGeometry>
        </mxCell>
        <mxCell id="-29obUkqVTbiaysX2pNh-248" value="ACK: 1" style="edgeLabel;resizable=0;html=1;align=center;verticalAlign=middle;" connectable="0" vertex="1" parent="-29obUkqVTbiaysX2pNh-247">
          <mxGeometry relative="1" as="geometry">
            <mxPoint x="38" y="11" as="offset" />
          </mxGeometry>
        </mxCell>
        <mxCell id="-29obUkqVTbiaysX2pNh-249" value="Seq: 67542" style="edgeLabel;resizable=0;html=1;align=center;verticalAlign=middle;" connectable="0" vertex="1" parent="-29obUkqVTbiaysX2pNh-247">
          <mxGeometry relative="1" as="geometry">
            <mxPoint x="-78" y="-28" as="offset" />
          </mxGeometry>
        </mxCell>
        <mxCell id="-29obUkqVTbiaysX2pNh-250" value="" style="endArrow=classic;html=1;rounded=0;" edge="1" parent="1">
          <mxGeometry relative="1" as="geometry">
            <mxPoint x="288" y="1687" as="sourcePoint" />
            <mxPoint x="688" y="1827.0000000000005" as="targetPoint" />
          </mxGeometry>
        </mxCell>
        <mxCell id="-29obUkqVTbiaysX2pNh-251" value="ACK: 1" style="edgeLabel;resizable=0;html=1;align=center;verticalAlign=middle;" connectable="0" vertex="1" parent="-29obUkqVTbiaysX2pNh-250">
          <mxGeometry relative="1" as="geometry">
            <mxPoint x="38" y="11" as="offset" />
          </mxGeometry>
        </mxCell>
        <mxCell id="-29obUkqVTbiaysX2pNh-252" value="Seq: 68994" style="edgeLabel;resizable=0;html=1;align=center;verticalAlign=middle;" connectable="0" vertex="1" parent="-29obUkqVTbiaysX2pNh-250">
          <mxGeometry relative="1" as="geometry">
            <mxPoint x="-78" y="-28" as="offset" />
          </mxGeometry>
        </mxCell>
        <mxCell id="-29obUkqVTbiaysX2pNh-253" value="" style="endArrow=classic;html=1;rounded=0;" edge="1" parent="1">
          <mxGeometry relative="1" as="geometry">
            <mxPoint x="287" y="1715" as="sourcePoint" />
            <mxPoint x="687" y="1855.0000000000005" as="targetPoint" />
          </mxGeometry>
        </mxCell>
        <mxCell id="-29obUkqVTbiaysX2pNh-254" value="ACK: 1" style="edgeLabel;resizable=0;html=1;align=center;verticalAlign=middle;" connectable="0" vertex="1" parent="-29obUkqVTbiaysX2pNh-253">
          <mxGeometry relative="1" as="geometry">
            <mxPoint x="38" y="11" as="offset" />
          </mxGeometry>
        </mxCell>
        <mxCell id="-29obUkqVTbiaysX2pNh-255" value="Seq: 70446" style="edgeLabel;resizable=0;html=1;align=center;verticalAlign=middle;" connectable="0" vertex="1" parent="-29obUkqVTbiaysX2pNh-253">
          <mxGeometry relative="1" as="geometry">
            <mxPoint x="-78" y="-28" as="offset" />
          </mxGeometry>
        </mxCell>
        <mxCell id="-29obUkqVTbiaysX2pNh-256" value="" style="endArrow=classic;html=1;rounded=0;" edge="1" parent="1">
          <mxGeometry relative="1" as="geometry">
            <mxPoint x="289" y="1742.9999999999995" as="sourcePoint" />
            <mxPoint x="689" y="1883.0000000000005" as="targetPoint" />
          </mxGeometry>
        </mxCell>
        <mxCell id="-29obUkqVTbiaysX2pNh-257" value="ACK: 1" style="edgeLabel;resizable=0;html=1;align=center;verticalAlign=middle;" connectable="0" vertex="1" parent="-29obUkqVTbiaysX2pNh-256">
          <mxGeometry relative="1" as="geometry">
            <mxPoint x="38" y="11" as="offset" />
          </mxGeometry>
        </mxCell>
        <mxCell id="-29obUkqVTbiaysX2pNh-258" value="Seq: 71898" style="edgeLabel;resizable=0;html=1;align=center;verticalAlign=middle;" connectable="0" vertex="1" parent="-29obUkqVTbiaysX2pNh-256">
          <mxGeometry relative="1" as="geometry">
            <mxPoint x="-78" y="-28" as="offset" />
          </mxGeometry>
        </mxCell>
        <mxCell id="-29obUkqVTbiaysX2pNh-261" value="" style="endArrow=classic;html=1;rounded=0;" edge="1" parent="1">
          <mxGeometry relative="1" as="geometry">
            <mxPoint x="686" y="906" as="sourcePoint" />
            <mxPoint x="290" y="1779" as="targetPoint" />
          </mxGeometry>
        </mxCell>
        <mxCell id="-29obUkqVTbiaysX2pNh-262" value="ACK: 31242" style="edgeLabel;resizable=0;html=1;align=center;verticalAlign=middle;" connectable="0" vertex="1" parent="-29obUkqVTbiaysX2pNh-261">
          <mxGeometry relative="1" as="geometry" />
        </mxCell>
        <mxCell id="-29obUkqVTbiaysX2pNh-264" value="Seq: 1" style="edgeLabel;resizable=0;html=1;align=center;verticalAlign=middle;" connectable="0" vertex="1" parent="-29obUkqVTbiaysX2pNh-261">
          <mxGeometry relative="1" as="geometry">
            <mxPoint x="127" y="-276" as="offset" />
          </mxGeometry>
        </mxCell>
        <mxCell id="-29obUkqVTbiaysX2pNh-270" value="" style="endArrow=classic;html=1;rounded=0;" edge="1" parent="1">
          <mxGeometry relative="1" as="geometry">
            <mxPoint x="288.9999999999999" y="1778.9999999999995" as="sourcePoint" />
            <mxPoint x="689" y="1919.0000000000005" as="targetPoint" />
          </mxGeometry>
        </mxCell>
        <mxCell id="-29obUkqVTbiaysX2pNh-271" value="ACK: 1" style="edgeLabel;resizable=0;html=1;align=center;verticalAlign=middle;" connectable="0" vertex="1" parent="-29obUkqVTbiaysX2pNh-270">
          <mxGeometry relative="1" as="geometry">
            <mxPoint x="38" y="11" as="offset" />
          </mxGeometry>
        </mxCell>
        <mxCell id="-29obUkqVTbiaysX2pNh-272" value="Seq: 73350" style="edgeLabel;resizable=0;html=1;align=center;verticalAlign=middle;" connectable="0" vertex="1" parent="-29obUkqVTbiaysX2pNh-270">
          <mxGeometry relative="1" as="geometry">
            <mxPoint x="-78" y="-28" as="offset" />
          </mxGeometry>
        </mxCell>
        <mxCell id="-29obUkqVTbiaysX2pNh-273" value="" style="endArrow=classic;html=1;rounded=0;" edge="1" parent="1">
          <mxGeometry relative="1" as="geometry">
            <mxPoint x="288.9999999999999" y="1805.9999999999995" as="sourcePoint" />
            <mxPoint x="689" y="1946.0000000000005" as="targetPoint" />
          </mxGeometry>
        </mxCell>
        <mxCell id="-29obUkqVTbiaysX2pNh-274" value="ACK: 1" style="edgeLabel;resizable=0;html=1;align=center;verticalAlign=middle;" connectable="0" vertex="1" parent="-29obUkqVTbiaysX2pNh-273">
          <mxGeometry relative="1" as="geometry">
            <mxPoint x="38" y="11" as="offset" />
          </mxGeometry>
        </mxCell>
        <mxCell id="-29obUkqVTbiaysX2pNh-275" value="Seq: 74802" style="edgeLabel;resizable=0;html=1;align=center;verticalAlign=middle;" connectable="0" vertex="1" parent="-29obUkqVTbiaysX2pNh-273">
          <mxGeometry relative="1" as="geometry">
            <mxPoint x="-78" y="-28" as="offset" />
          </mxGeometry>
        </mxCell>
        <mxCell id="-29obUkqVTbiaysX2pNh-276" value="" style="endArrow=classic;html=1;rounded=0;" edge="1" parent="1">
          <mxGeometry relative="1" as="geometry">
            <mxPoint x="686" y="933" as="sourcePoint" />
            <mxPoint x="290" y="1841.1696370442708" as="targetPoint" />
          </mxGeometry>
        </mxCell>
        <mxCell id="-29obUkqVTbiaysX2pNh-277" value="ACK: 32694" style="edgeLabel;resizable=0;html=1;align=center;verticalAlign=middle;" connectable="0" vertex="1" parent="-29obUkqVTbiaysX2pNh-276">
          <mxGeometry relative="1" as="geometry">
            <mxPoint x="-24" y="54" as="offset" />
          </mxGeometry>
        </mxCell>
        <mxCell id="-29obUkqVTbiaysX2pNh-278" value="Seq: 1" style="edgeLabel;resizable=0;html=1;align=center;verticalAlign=middle;" connectable="0" vertex="1" parent="-29obUkqVTbiaysX2pNh-276">
          <mxGeometry relative="1" as="geometry">
            <mxPoint x="122" y="-287" as="offset" />
          </mxGeometry>
        </mxCell>
        <mxCell id="-29obUkqVTbiaysX2pNh-279" value="" style="endArrow=classic;html=1;rounded=0;" edge="1" parent="1">
          <mxGeometry relative="1" as="geometry">
            <mxPoint x="288.9999999999999" y="1839.9999999999995" as="sourcePoint" />
            <mxPoint x="689" y="1980.0000000000005" as="targetPoint" />
          </mxGeometry>
        </mxCell>
        <mxCell id="-29obUkqVTbiaysX2pNh-280" value="ACK: 1" style="edgeLabel;resizable=0;html=1;align=center;verticalAlign=middle;" connectable="0" vertex="1" parent="-29obUkqVTbiaysX2pNh-279">
          <mxGeometry relative="1" as="geometry">
            <mxPoint x="38" y="11" as="offset" />
          </mxGeometry>
        </mxCell>
        <mxCell id="-29obUkqVTbiaysX2pNh-281" value="Seq: 76254" style="edgeLabel;resizable=0;html=1;align=center;verticalAlign=middle;" connectable="0" vertex="1" parent="-29obUkqVTbiaysX2pNh-279">
          <mxGeometry relative="1" as="geometry">
            <mxPoint x="-78" y="-28" as="offset" />
          </mxGeometry>
        </mxCell>
        <mxCell id="-29obUkqVTbiaysX2pNh-282" value="" style="endArrow=classic;html=1;rounded=0;" edge="1" parent="1">
          <mxGeometry relative="1" as="geometry">
            <mxPoint x="287.9999999999999" y="1868.9999999999995" as="sourcePoint" />
            <mxPoint x="688" y="2009.0000000000005" as="targetPoint" />
          </mxGeometry>
        </mxCell>
        <mxCell id="-29obUkqVTbiaysX2pNh-283" value="ACK: 1" style="edgeLabel;resizable=0;html=1;align=center;verticalAlign=middle;" connectable="0" vertex="1" parent="-29obUkqVTbiaysX2pNh-282">
          <mxGeometry relative="1" as="geometry">
            <mxPoint x="38" y="11" as="offset" />
          </mxGeometry>
        </mxCell>
        <mxCell id="-29obUkqVTbiaysX2pNh-284" value="Seq: 77706" style="edgeLabel;resizable=0;html=1;align=center;verticalAlign=middle;" connectable="0" vertex="1" parent="-29obUkqVTbiaysX2pNh-282">
          <mxGeometry relative="1" as="geometry">
            <mxPoint x="-78" y="-28" as="offset" />
          </mxGeometry>
        </mxCell>
        <mxCell id="-29obUkqVTbiaysX2pNh-285" value="" style="endArrow=classic;html=1;rounded=0;" edge="1" parent="1">
          <mxGeometry relative="1" as="geometry">
            <mxPoint x="680" y="970" as="sourcePoint" />
            <mxPoint x="290" y="1901.1696370442708" as="targetPoint" />
          </mxGeometry>
        </mxCell>
        <mxCell id="-29obUkqVTbiaysX2pNh-286" value="ACK: 34146" style="edgeLabel;resizable=0;html=1;align=center;verticalAlign=middle;" connectable="0" vertex="1" parent="-29obUkqVTbiaysX2pNh-285">
          <mxGeometry relative="1" as="geometry">
            <mxPoint x="55" y="-126" as="offset" />
          </mxGeometry>
        </mxCell>
        <mxCell id="-29obUkqVTbiaysX2pNh-287" value="Seq: 1" style="edgeLabel;resizable=0;html=1;align=center;verticalAlign=middle;" connectable="0" vertex="1" parent="-29obUkqVTbiaysX2pNh-285">
          <mxGeometry relative="1" as="geometry">
            <mxPoint x="103" y="-242" as="offset" />
          </mxGeometry>
        </mxCell>
        <mxCell id="-29obUkqVTbiaysX2pNh-288" value="" style="endArrow=classic;html=1;rounded=0;" edge="1" parent="1">
          <mxGeometry relative="1" as="geometry">
            <mxPoint x="688" y="1000" as="sourcePoint" />
            <mxPoint x="290" y="1920.5849202473958" as="targetPoint" />
          </mxGeometry>
        </mxCell>
        <mxCell id="-29obUkqVTbiaysX2pNh-289" value="ACK: 35598" style="edgeLabel;resizable=0;html=1;align=center;verticalAlign=middle;" connectable="0" vertex="1" parent="-29obUkqVTbiaysX2pNh-288">
          <mxGeometry relative="1" as="geometry">
            <mxPoint x="1" y="10" as="offset" />
          </mxGeometry>
        </mxCell>
        <mxCell id="-29obUkqVTbiaysX2pNh-290" value="Seq: 1" style="edgeLabel;resizable=0;html=1;align=center;verticalAlign=middle;" connectable="0" vertex="1" parent="-29obUkqVTbiaysX2pNh-288">
          <mxGeometry relative="1" as="geometry">
            <mxPoint x="91" y="-210" as="offset" />
          </mxGeometry>
        </mxCell>
        <mxCell id="-29obUkqVTbiaysX2pNh-291" value="" style="endArrow=classic;html=1;rounded=0;" edge="1" parent="1">
          <mxGeometry relative="1" as="geometry">
            <mxPoint x="287.9999999999999" y="1919.9999999999995" as="sourcePoint" />
            <mxPoint x="688" y="2060.0000000000005" as="targetPoint" />
          </mxGeometry>
        </mxCell>
        <mxCell id="-29obUkqVTbiaysX2pNh-292" value="ACK: 1" style="edgeLabel;resizable=0;html=1;align=center;verticalAlign=middle;" connectable="0" vertex="1" parent="-29obUkqVTbiaysX2pNh-291">
          <mxGeometry relative="1" as="geometry">
            <mxPoint x="38" y="11" as="offset" />
          </mxGeometry>
        </mxCell>
        <mxCell id="-29obUkqVTbiaysX2pNh-293" value="Seq: 79158" style="edgeLabel;resizable=0;html=1;align=center;verticalAlign=middle;" connectable="0" vertex="1" parent="-29obUkqVTbiaysX2pNh-291">
          <mxGeometry relative="1" as="geometry">
            <mxPoint x="-113" y="-39" as="offset" />
          </mxGeometry>
        </mxCell>
        <mxCell id="-29obUkqVTbiaysX2pNh-294" value="" style="endArrow=classic;html=1;rounded=0;" edge="1" parent="1">
          <mxGeometry relative="1" as="geometry">
            <mxPoint x="287.9999999999999" y="1944.9999999999995" as="sourcePoint" />
            <mxPoint x="688" y="2085.0000000000005" as="targetPoint" />
          </mxGeometry>
        </mxCell>
        <mxCell id="-29obUkqVTbiaysX2pNh-295" value="ACK: 1" style="edgeLabel;resizable=0;html=1;align=center;verticalAlign=middle;" connectable="0" vertex="1" parent="-29obUkqVTbiaysX2pNh-294">
          <mxGeometry relative="1" as="geometry">
            <mxPoint x="38" y="11" as="offset" />
          </mxGeometry>
        </mxCell>
        <mxCell id="-29obUkqVTbiaysX2pNh-296" value="Seq: 80610" style="edgeLabel;resizable=0;html=1;align=center;verticalAlign=middle;" connectable="0" vertex="1" parent="-29obUkqVTbiaysX2pNh-294">
          <mxGeometry relative="1" as="geometry">
            <mxPoint x="-78" y="-28" as="offset" />
          </mxGeometry>
        </mxCell>
        <mxCell id="-29obUkqVTbiaysX2pNh-297" value="" style="endArrow=classic;html=1;rounded=0;" edge="1" parent="1">
          <mxGeometry relative="1" as="geometry">
            <mxPoint x="287.9999999999999" y="1968.9999999999995" as="sourcePoint" />
            <mxPoint x="688" y="2109.0000000000005" as="targetPoint" />
          </mxGeometry>
        </mxCell>
        <mxCell id="-29obUkqVTbiaysX2pNh-298" value="ACK: 1" style="edgeLabel;resizable=0;html=1;align=center;verticalAlign=middle;" connectable="0" vertex="1" parent="-29obUkqVTbiaysX2pNh-297">
          <mxGeometry relative="1" as="geometry">
            <mxPoint x="38" y="11" as="offset" />
          </mxGeometry>
        </mxCell>
        <mxCell id="-29obUkqVTbiaysX2pNh-299" value="Seq: 82062" style="edgeLabel;resizable=0;html=1;align=center;verticalAlign=middle;" connectable="0" vertex="1" parent="-29obUkqVTbiaysX2pNh-297">
          <mxGeometry relative="1" as="geometry">
            <mxPoint x="-78" y="-28" as="offset" />
          </mxGeometry>
        </mxCell>
        <mxCell id="-29obUkqVTbiaysX2pNh-300" value="" style="endArrow=classic;html=1;rounded=0;" edge="1" parent="1">
          <mxGeometry relative="1" as="geometry">
            <mxPoint x="287.9999999999999" y="1994.9999999999995" as="sourcePoint" />
            <mxPoint x="688" y="2135.0000000000005" as="targetPoint" />
          </mxGeometry>
        </mxCell>
        <mxCell id="-29obUkqVTbiaysX2pNh-301" value="ACK: 1" style="edgeLabel;resizable=0;html=1;align=center;verticalAlign=middle;" connectable="0" vertex="1" parent="-29obUkqVTbiaysX2pNh-300">
          <mxGeometry relative="1" as="geometry">
            <mxPoint x="38" y="11" as="offset" />
          </mxGeometry>
        </mxCell>
        <mxCell id="-29obUkqVTbiaysX2pNh-302" value="Seq: 83514" style="edgeLabel;resizable=0;html=1;align=center;verticalAlign=middle;" connectable="0" vertex="1" parent="-29obUkqVTbiaysX2pNh-300">
          <mxGeometry relative="1" as="geometry">
            <mxPoint x="-78" y="-28" as="offset" />
          </mxGeometry>
        </mxCell>
        <mxCell id="-29obUkqVTbiaysX2pNh-303" value="" style="endArrow=classic;html=1;rounded=0;" edge="1" parent="1">
          <mxGeometry relative="1" as="geometry">
            <mxPoint x="689" y="1039" as="sourcePoint" />
            <mxPoint x="290" y="2021.1696370442708" as="targetPoint" />
          </mxGeometry>
        </mxCell>
        <mxCell id="-29obUkqVTbiaysX2pNh-304" value="ACK: 37050" style="edgeLabel;resizable=0;html=1;align=center;verticalAlign=middle;" connectable="0" vertex="1" parent="-29obUkqVTbiaysX2pNh-303">
          <mxGeometry relative="1" as="geometry">
            <mxPoint x="2" y="-2" as="offset" />
          </mxGeometry>
        </mxCell>
        <mxCell id="-29obUkqVTbiaysX2pNh-305" value="Seq: 1" style="edgeLabel;resizable=0;html=1;align=center;verticalAlign=middle;" connectable="0" vertex="1" parent="-29obUkqVTbiaysX2pNh-303">
          <mxGeometry relative="1" as="geometry">
            <mxPoint x="103" y="-249" as="offset" />
          </mxGeometry>
        </mxCell>
        <mxCell id="-29obUkqVTbiaysX2pNh-306" value="" style="endArrow=classic;html=1;rounded=0;" edge="1" parent="1">
          <mxGeometry relative="1" as="geometry">
            <mxPoint x="288.9999999999999" y="2021.9999999999995" as="sourcePoint" />
            <mxPoint x="689" y="2162.0000000000005" as="targetPoint" />
          </mxGeometry>
        </mxCell>
        <mxCell id="-29obUkqVTbiaysX2pNh-307" value="ACK: 1" style="edgeLabel;resizable=0;html=1;align=center;verticalAlign=middle;" connectable="0" vertex="1" parent="-29obUkqVTbiaysX2pNh-306">
          <mxGeometry relative="1" as="geometry">
            <mxPoint x="38" y="11" as="offset" />
          </mxGeometry>
        </mxCell>
        <mxCell id="-29obUkqVTbiaysX2pNh-308" value="Seq: 84966" style="edgeLabel;resizable=0;html=1;align=center;verticalAlign=middle;" connectable="0" vertex="1" parent="-29obUkqVTbiaysX2pNh-306">
          <mxGeometry relative="1" as="geometry">
            <mxPoint x="-78" y="-28" as="offset" />
          </mxGeometry>
        </mxCell>
        <mxCell id="-29obUkqVTbiaysX2pNh-309" value="" style="endArrow=classic;html=1;rounded=0;" edge="1" parent="1">
          <mxGeometry relative="1" as="geometry">
            <mxPoint x="287.9999999999999" y="2049.9999999999995" as="sourcePoint" />
            <mxPoint x="688" y="2190.0000000000005" as="targetPoint" />
          </mxGeometry>
        </mxCell>
        <mxCell id="-29obUkqVTbiaysX2pNh-310" value="ACK: 1" style="edgeLabel;resizable=0;html=1;align=center;verticalAlign=middle;" connectable="0" vertex="1" parent="-29obUkqVTbiaysX2pNh-309">
          <mxGeometry relative="1" as="geometry">
            <mxPoint x="38" y="11" as="offset" />
          </mxGeometry>
        </mxCell>
        <mxCell id="-29obUkqVTbiaysX2pNh-311" value="Seq: 86418" style="edgeLabel;resizable=0;html=1;align=center;verticalAlign=middle;" connectable="0" vertex="1" parent="-29obUkqVTbiaysX2pNh-309">
          <mxGeometry relative="1" as="geometry">
            <mxPoint x="-78" y="-28" as="offset" />
          </mxGeometry>
        </mxCell>
        <mxCell id="-29obUkqVTbiaysX2pNh-312" value="" style="endArrow=classic;html=1;rounded=0;" edge="1" parent="1">
          <mxGeometry relative="1" as="geometry">
            <mxPoint x="688" y="1072" as="sourcePoint" />
            <mxPoint x="290" y="2082.339070638021" as="targetPoint" />
          </mxGeometry>
        </mxCell>
        <mxCell id="-29obUkqVTbiaysX2pNh-313" value="ACK: 38502" style="edgeLabel;resizable=0;html=1;align=center;verticalAlign=middle;" connectable="0" vertex="1" parent="-29obUkqVTbiaysX2pNh-312">
          <mxGeometry relative="1" as="geometry">
            <mxPoint x="-15" y="63" as="offset" />
          </mxGeometry>
        </mxCell>
        <mxCell id="-29obUkqVTbiaysX2pNh-314" value="Seq: 1" style="edgeLabel;resizable=0;html=1;align=center;verticalAlign=middle;" connectable="0" vertex="1" parent="-29obUkqVTbiaysX2pNh-312">
          <mxGeometry relative="1" as="geometry">
            <mxPoint x="56" y="-128" as="offset" />
          </mxGeometry>
        </mxCell>
        <mxCell id="-29obUkqVTbiaysX2pNh-315" value="" style="endArrow=classic;html=1;rounded=0;" edge="1" parent="1">
          <mxGeometry relative="1" as="geometry">
            <mxPoint x="287.9999999999999" y="2081.9999999999995" as="sourcePoint" />
            <mxPoint x="688" y="2222.0000000000005" as="targetPoint" />
          </mxGeometry>
        </mxCell>
        <mxCell id="-29obUkqVTbiaysX2pNh-316" value="ACK: 1" style="edgeLabel;resizable=0;html=1;align=center;verticalAlign=middle;" connectable="0" vertex="1" parent="-29obUkqVTbiaysX2pNh-315">
          <mxGeometry relative="1" as="geometry">
            <mxPoint x="38" y="11" as="offset" />
          </mxGeometry>
        </mxCell>
        <mxCell id="-29obUkqVTbiaysX2pNh-317" value="Seq: 87870" style="edgeLabel;resizable=0;html=1;align=center;verticalAlign=middle;" connectable="0" vertex="1" parent="-29obUkqVTbiaysX2pNh-315">
          <mxGeometry relative="1" as="geometry">
            <mxPoint x="-78" y="-28" as="offset" />
          </mxGeometry>
        </mxCell>
        <mxCell id="-29obUkqVTbiaysX2pNh-318" value="" style="endArrow=classic;html=1;rounded=0;" edge="1" parent="1">
          <mxGeometry relative="1" as="geometry">
            <mxPoint x="287.9999999999999" y="2103.9999999999995" as="sourcePoint" />
            <mxPoint x="688" y="2244.0000000000005" as="targetPoint" />
          </mxGeometry>
        </mxCell>
        <mxCell id="-29obUkqVTbiaysX2pNh-319" value="ACK: 1" style="edgeLabel;resizable=0;html=1;align=center;verticalAlign=middle;" connectable="0" vertex="1" parent="-29obUkqVTbiaysX2pNh-318">
          <mxGeometry relative="1" as="geometry">
            <mxPoint x="38" y="11" as="offset" />
          </mxGeometry>
        </mxCell>
        <mxCell id="-29obUkqVTbiaysX2pNh-320" value="Seq: 89322" style="edgeLabel;resizable=0;html=1;align=center;verticalAlign=middle;" connectable="0" vertex="1" parent="-29obUkqVTbiaysX2pNh-318">
          <mxGeometry relative="1" as="geometry">
            <mxPoint x="-78" y="-28" as="offset" />
          </mxGeometry>
        </mxCell>
        <mxCell id="-29obUkqVTbiaysX2pNh-321" value="" style="endArrow=classic;html=1;rounded=0;" edge="1" parent="1">
          <mxGeometry relative="1" as="geometry">
            <mxPoint x="687" y="1111" as="sourcePoint" />
            <mxPoint x="290" y="2142.3392740885415" as="targetPoint" />
          </mxGeometry>
        </mxCell>
        <mxCell id="-29obUkqVTbiaysX2pNh-322" value="ACK: 39954" style="edgeLabel;resizable=0;html=1;align=center;verticalAlign=middle;" connectable="0" vertex="1" parent="-29obUkqVTbiaysX2pNh-321">
          <mxGeometry relative="1" as="geometry">
            <mxPoint x="-19" y="53" as="offset" />
          </mxGeometry>
        </mxCell>
        <mxCell id="-29obUkqVTbiaysX2pNh-323" value="Seq: 1" style="edgeLabel;resizable=0;html=1;align=center;verticalAlign=middle;" connectable="0" vertex="1" parent="-29obUkqVTbiaysX2pNh-321">
          <mxGeometry relative="1" as="geometry">
            <mxPoint x="91" y="-227" as="offset" />
          </mxGeometry>
        </mxCell>
        <mxCell id="-29obUkqVTbiaysX2pNh-324" value="" style="endArrow=classic;html=1;rounded=0;" edge="1" parent="1">
          <mxGeometry relative="1" as="geometry">
            <mxPoint x="288.9999999999999" y="2141.9999999999995" as="sourcePoint" />
            <mxPoint x="689" y="2282.0000000000005" as="targetPoint" />
          </mxGeometry>
        </mxCell>
        <mxCell id="-29obUkqVTbiaysX2pNh-325" value="ACK: 1" style="edgeLabel;resizable=0;html=1;align=center;verticalAlign=middle;" connectable="0" vertex="1" parent="-29obUkqVTbiaysX2pNh-324">
          <mxGeometry relative="1" as="geometry">
            <mxPoint x="38" y="11" as="offset" />
          </mxGeometry>
        </mxCell>
        <mxCell id="-29obUkqVTbiaysX2pNh-326" value="Seq: 90774" style="edgeLabel;resizable=0;html=1;align=center;verticalAlign=middle;" connectable="0" vertex="1" parent="-29obUkqVTbiaysX2pNh-324">
          <mxGeometry relative="1" as="geometry">
            <mxPoint x="-78" y="-28" as="offset" />
          </mxGeometry>
        </mxCell>
        <mxCell id="-29obUkqVTbiaysX2pNh-327" value="" style="endArrow=classic;html=1;rounded=0;" edge="1" parent="1">
          <mxGeometry relative="1" as="geometry">
            <mxPoint x="287.9999999999999" y="2172.9999999999995" as="sourcePoint" />
            <mxPoint x="688" y="2313.0000000000005" as="targetPoint" />
          </mxGeometry>
        </mxCell>
        <mxCell id="-29obUkqVTbiaysX2pNh-328" value="ACK: 1" style="edgeLabel;resizable=0;html=1;align=center;verticalAlign=middle;" connectable="0" vertex="1" parent="-29obUkqVTbiaysX2pNh-327">
          <mxGeometry relative="1" as="geometry">
            <mxPoint x="38" y="11" as="offset" />
          </mxGeometry>
        </mxCell>
        <mxCell id="-29obUkqVTbiaysX2pNh-329" value="Seq: 92226" style="edgeLabel;resizable=0;html=1;align=center;verticalAlign=middle;" connectable="0" vertex="1" parent="-29obUkqVTbiaysX2pNh-327">
          <mxGeometry relative="1" as="geometry">
            <mxPoint x="-78" y="-28" as="offset" />
          </mxGeometry>
        </mxCell>
        <mxCell id="-29obUkqVTbiaysX2pNh-330" value="" style="endArrow=classic;html=1;rounded=0;" edge="1" parent="1">
          <mxGeometry relative="1" as="geometry">
            <mxPoint x="687" y="1142" as="sourcePoint" />
            <mxPoint x="290" y="2211.16943359375" as="targetPoint" />
          </mxGeometry>
        </mxCell>
        <mxCell id="-29obUkqVTbiaysX2pNh-331" value="ACK: 41406" style="edgeLabel;resizable=0;html=1;align=center;verticalAlign=middle;" connectable="0" vertex="1" parent="-29obUkqVTbiaysX2pNh-330">
          <mxGeometry relative="1" as="geometry">
            <mxPoint x="-18" y="63" as="offset" />
          </mxGeometry>
        </mxCell>
        <mxCell id="-29obUkqVTbiaysX2pNh-332" value="Seq: 1" style="edgeLabel;resizable=0;html=1;align=center;verticalAlign=middle;" connectable="0" vertex="1" parent="-29obUkqVTbiaysX2pNh-330">
          <mxGeometry relative="1" as="geometry">
            <mxPoint x="71" y="-196" as="offset" />
          </mxGeometry>
        </mxCell>
        <mxCell id="-29obUkqVTbiaysX2pNh-333" value="" style="endArrow=classic;html=1;rounded=0;" edge="1" parent="1">
          <mxGeometry relative="1" as="geometry">
            <mxPoint x="288.9999999999999" y="2211.9999999999995" as="sourcePoint" />
            <mxPoint x="689" y="2352.0000000000005" as="targetPoint" />
          </mxGeometry>
        </mxCell>
        <mxCell id="-29obUkqVTbiaysX2pNh-334" value="ACK: 1" style="edgeLabel;resizable=0;html=1;align=center;verticalAlign=middle;" connectable="0" vertex="1" parent="-29obUkqVTbiaysX2pNh-333">
          <mxGeometry relative="1" as="geometry">
            <mxPoint x="38" y="11" as="offset" />
          </mxGeometry>
        </mxCell>
        <mxCell id="-29obUkqVTbiaysX2pNh-335" value="Seq: 93678" style="edgeLabel;resizable=0;html=1;align=center;verticalAlign=middle;" connectable="0" vertex="1" parent="-29obUkqVTbiaysX2pNh-333">
          <mxGeometry relative="1" as="geometry">
            <mxPoint x="-78" y="-28" as="offset" />
          </mxGeometry>
        </mxCell>
        <mxCell id="-29obUkqVTbiaysX2pNh-336" value="" style="endArrow=classic;html=1;rounded=0;" edge="1" parent="1">
          <mxGeometry relative="1" as="geometry">
            <mxPoint x="288.9999999999999" y="2238.9999999999995" as="sourcePoint" />
            <mxPoint x="689" y="2379.0000000000005" as="targetPoint" />
          </mxGeometry>
        </mxCell>
        <mxCell id="-29obUkqVTbiaysX2pNh-337" value="ACK: 1" style="edgeLabel;resizable=0;html=1;align=center;verticalAlign=middle;" connectable="0" vertex="1" parent="-29obUkqVTbiaysX2pNh-336">
          <mxGeometry relative="1" as="geometry">
            <mxPoint x="38" y="11" as="offset" />
          </mxGeometry>
        </mxCell>
        <mxCell id="-29obUkqVTbiaysX2pNh-338" value="Seq: 95130" style="edgeLabel;resizable=0;html=1;align=center;verticalAlign=middle;" connectable="0" vertex="1" parent="-29obUkqVTbiaysX2pNh-336">
          <mxGeometry relative="1" as="geometry">
            <mxPoint x="-78" y="-28" as="offset" />
          </mxGeometry>
        </mxCell>
        <mxCell id="-29obUkqVTbiaysX2pNh-340" value="" style="endArrow=classic;html=1;rounded=0;" edge="1" parent="1">
          <mxGeometry relative="1" as="geometry">
            <mxPoint x="688" y="1181" as="sourcePoint" />
            <mxPoint x="290" y="2272.3392740885415" as="targetPoint" />
          </mxGeometry>
        </mxCell>
        <mxCell id="-29obUkqVTbiaysX2pNh-341" value="ACK: 42858" style="edgeLabel;resizable=0;html=1;align=center;verticalAlign=middle;" connectable="0" vertex="1" parent="-29obUkqVTbiaysX2pNh-340">
          <mxGeometry relative="1" as="geometry">
            <mxPoint x="-71" y="210" as="offset" />
          </mxGeometry>
        </mxCell>
        <mxCell id="-29obUkqVTbiaysX2pNh-342" value="Seq: 1" style="edgeLabel;resizable=0;html=1;align=center;verticalAlign=middle;" connectable="0" vertex="1" parent="-29obUkqVTbiaysX2pNh-340">
          <mxGeometry relative="1" as="geometry">
            <mxPoint x="71" y="-197" as="offset" />
          </mxGeometry>
        </mxCell>
        <mxCell id="-29obUkqVTbiaysX2pNh-343" value="" style="endArrow=classic;html=1;rounded=0;" edge="1" parent="1">
          <mxGeometry relative="1" as="geometry">
            <mxPoint x="288.9999999999999" y="2271.9999999999995" as="sourcePoint" />
            <mxPoint x="689" y="2412.0000000000005" as="targetPoint" />
          </mxGeometry>
        </mxCell>
        <mxCell id="-29obUkqVTbiaysX2pNh-344" value="ACK: 1" style="edgeLabel;resizable=0;html=1;align=center;verticalAlign=middle;" connectable="0" vertex="1" parent="-29obUkqVTbiaysX2pNh-343">
          <mxGeometry relative="1" as="geometry">
            <mxPoint x="38" y="11" as="offset" />
          </mxGeometry>
        </mxCell>
        <mxCell id="-29obUkqVTbiaysX2pNh-345" value="Seq: 96582" style="edgeLabel;resizable=0;html=1;align=center;verticalAlign=middle;" connectable="0" vertex="1" parent="-29obUkqVTbiaysX2pNh-343">
          <mxGeometry relative="1" as="geometry">
            <mxPoint x="-78" y="-28" as="offset" />
          </mxGeometry>
        </mxCell>
        <mxCell id="-29obUkqVTbiaysX2pNh-346" value="" style="endArrow=classic;html=1;rounded=0;" edge="1" parent="1">
          <mxGeometry relative="1" as="geometry">
            <mxPoint x="287.9999999999999" y="2297.9999999999995" as="sourcePoint" />
            <mxPoint x="688" y="2438.0000000000005" as="targetPoint" />
          </mxGeometry>
        </mxCell>
        <mxCell id="-29obUkqVTbiaysX2pNh-347" value="ACK: 1" style="edgeLabel;resizable=0;html=1;align=center;verticalAlign=middle;" connectable="0" vertex="1" parent="-29obUkqVTbiaysX2pNh-346">
          <mxGeometry relative="1" as="geometry">
            <mxPoint x="38" y="11" as="offset" />
          </mxGeometry>
        </mxCell>
        <mxCell id="-29obUkqVTbiaysX2pNh-348" value="Seq: 98034" style="edgeLabel;resizable=0;html=1;align=center;verticalAlign=middle;" connectable="0" vertex="1" parent="-29obUkqVTbiaysX2pNh-346">
          <mxGeometry relative="1" as="geometry">
            <mxPoint x="-78" y="-28" as="offset" />
          </mxGeometry>
        </mxCell>
        <mxCell id="-29obUkqVTbiaysX2pNh-349" value="" style="endArrow=classic;html=1;rounded=0;" edge="1" parent="1">
          <mxGeometry relative="1" as="geometry">
            <mxPoint x="687" y="1212" as="sourcePoint" />
            <mxPoint x="290" y="2330.584716796875" as="targetPoint" />
          </mxGeometry>
        </mxCell>
        <mxCell id="-29obUkqVTbiaysX2pNh-350" value="ACK: 44310" style="edgeLabel;resizable=0;html=1;align=center;verticalAlign=middle;" connectable="0" vertex="1" parent="-29obUkqVTbiaysX2pNh-349">
          <mxGeometry relative="1" as="geometry">
            <mxPoint x="-8" y="33" as="offset" />
          </mxGeometry>
        </mxCell>
        <mxCell id="-29obUkqVTbiaysX2pNh-351" value="Seq: 1" style="edgeLabel;resizable=0;html=1;align=center;verticalAlign=middle;" connectable="0" vertex="1" parent="-29obUkqVTbiaysX2pNh-349">
          <mxGeometry relative="1" as="geometry">
            <mxPoint x="111" y="-301" as="offset" />
          </mxGeometry>
        </mxCell>
        <mxCell id="-29obUkqVTbiaysX2pNh-352" value="" style="endArrow=classic;html=1;rounded=0;" edge="1" parent="1">
          <mxGeometry relative="1" as="geometry">
            <mxPoint x="288.9999999999999" y="2330.9999999999995" as="sourcePoint" />
            <mxPoint x="689" y="2471.0000000000005" as="targetPoint" />
          </mxGeometry>
        </mxCell>
        <mxCell id="-29obUkqVTbiaysX2pNh-353" value="ACK: 1" style="edgeLabel;resizable=0;html=1;align=center;verticalAlign=middle;" connectable="0" vertex="1" parent="-29obUkqVTbiaysX2pNh-352">
          <mxGeometry relative="1" as="geometry">
            <mxPoint x="38" y="11" as="offset" />
          </mxGeometry>
        </mxCell>
        <mxCell id="-29obUkqVTbiaysX2pNh-354" value="Seq: 99486" style="edgeLabel;resizable=0;html=1;align=center;verticalAlign=middle;" connectable="0" vertex="1" parent="-29obUkqVTbiaysX2pNh-352">
          <mxGeometry relative="1" as="geometry">
            <mxPoint x="-78" y="-28" as="offset" />
          </mxGeometry>
        </mxCell>
        <mxCell id="-29obUkqVTbiaysX2pNh-355" value="" style="endArrow=classic;html=1;rounded=0;" edge="1" parent="1">
          <mxGeometry relative="1" as="geometry">
            <mxPoint x="288.9999999999999" y="2357.9999999999995" as="sourcePoint" />
            <mxPoint x="689" y="2498.0000000000005" as="targetPoint" />
          </mxGeometry>
        </mxCell>
        <mxCell id="-29obUkqVTbiaysX2pNh-356" value="ACK: 1" style="edgeLabel;resizable=0;html=1;align=center;verticalAlign=middle;" connectable="0" vertex="1" parent="-29obUkqVTbiaysX2pNh-355">
          <mxGeometry relative="1" as="geometry">
            <mxPoint x="38" y="11" as="offset" />
          </mxGeometry>
        </mxCell>
        <mxCell id="-29obUkqVTbiaysX2pNh-357" value="Seq: 100938" style="edgeLabel;resizable=0;html=1;align=center;verticalAlign=middle;" connectable="0" vertex="1" parent="-29obUkqVTbiaysX2pNh-355">
          <mxGeometry relative="1" as="geometry">
            <mxPoint x="-78" y="-28" as="offset" />
          </mxGeometry>
        </mxCell>
        <mxCell id="-29obUkqVTbiaysX2pNh-358" value="" style="endArrow=classic;html=1;rounded=0;" edge="1" parent="1">
          <mxGeometry relative="1" as="geometry">
            <mxPoint x="686" y="1245" as="sourcePoint" />
            <mxPoint x="290" y="2394.6783447265625" as="targetPoint" />
          </mxGeometry>
        </mxCell>
        <mxCell id="-29obUkqVTbiaysX2pNh-359" value="ACK: 45762" style="edgeLabel;resizable=0;html=1;align=center;verticalAlign=middle;" connectable="0" vertex="1" parent="-29obUkqVTbiaysX2pNh-358">
          <mxGeometry relative="1" as="geometry">
            <mxPoint x="2" y="18" as="offset" />
          </mxGeometry>
        </mxCell>
        <mxCell id="-29obUkqVTbiaysX2pNh-360" value="Seq: 1" style="edgeLabel;resizable=0;html=1;align=center;verticalAlign=middle;" connectable="0" vertex="1" parent="-29obUkqVTbiaysX2pNh-358">
          <mxGeometry relative="1" as="geometry">
            <mxPoint x="62" y="-160" as="offset" />
          </mxGeometry>
        </mxCell>
        <mxCell id="-29obUkqVTbiaysX2pNh-361" value="" style="endArrow=classic;html=1;rounded=0;" edge="1" parent="1">
          <mxGeometry relative="1" as="geometry">
            <mxPoint x="288.9999999999999" y="2391.9999999999995" as="sourcePoint" />
            <mxPoint x="689" y="2532.0000000000005" as="targetPoint" />
          </mxGeometry>
        </mxCell>
        <mxCell id="-29obUkqVTbiaysX2pNh-362" value="ACK: 1" style="edgeLabel;resizable=0;html=1;align=center;verticalAlign=middle;" connectable="0" vertex="1" parent="-29obUkqVTbiaysX2pNh-361">
          <mxGeometry relative="1" as="geometry">
            <mxPoint x="38" y="11" as="offset" />
          </mxGeometry>
        </mxCell>
        <mxCell id="-29obUkqVTbiaysX2pNh-363" value="Seq: 102390" style="edgeLabel;resizable=0;html=1;align=center;verticalAlign=middle;" connectable="0" vertex="1" parent="-29obUkqVTbiaysX2pNh-361">
          <mxGeometry relative="1" as="geometry">
            <mxPoint x="-78" y="-28" as="offset" />
          </mxGeometry>
        </mxCell>
        <mxCell id="-29obUkqVTbiaysX2pNh-364" value="" style="endArrow=classic;html=1;rounded=0;" edge="1" parent="1">
          <mxGeometry relative="1" as="geometry">
            <mxPoint x="289" y="2418.9999999999995" as="sourcePoint" />
            <mxPoint x="689" y="2559.0000000000005" as="targetPoint" />
          </mxGeometry>
        </mxCell>
        <mxCell id="-29obUkqVTbiaysX2pNh-365" value="ACK: 1" style="edgeLabel;resizable=0;html=1;align=center;verticalAlign=middle;" connectable="0" vertex="1" parent="-29obUkqVTbiaysX2pNh-364">
          <mxGeometry relative="1" as="geometry">
            <mxPoint x="38" y="11" as="offset" />
          </mxGeometry>
        </mxCell>
        <mxCell id="-29obUkqVTbiaysX2pNh-366" value="Seq: 103842" style="edgeLabel;resizable=0;html=1;align=center;verticalAlign=middle;" connectable="0" vertex="1" parent="-29obUkqVTbiaysX2pNh-364">
          <mxGeometry relative="1" as="geometry">
            <mxPoint x="-78" y="-28" as="offset" />
          </mxGeometry>
        </mxCell>
        <mxCell id="-29obUkqVTbiaysX2pNh-367" value="" style="endArrow=classic;html=1;rounded=0;" edge="1" parent="1">
          <mxGeometry relative="1" as="geometry">
            <mxPoint x="688" y="1300" as="sourcePoint" />
            <mxPoint x="288" y="2461.169637044271" as="targetPoint" />
          </mxGeometry>
        </mxCell>
        <mxCell id="-29obUkqVTbiaysX2pNh-368" value="Seq: 1" style="edgeLabel;resizable=0;html=1;align=center;verticalAlign=middle;" connectable="0" vertex="1" parent="-29obUkqVTbiaysX2pNh-367">
          <mxGeometry relative="1" as="geometry">
            <mxPoint x="-1" y="13" as="offset" />
          </mxGeometry>
        </mxCell>
        <mxCell id="-29obUkqVTbiaysX2pNh-369" value="ACK: 48666" style="edgeLabel;resizable=0;html=1;align=center;verticalAlign=middle;" connectable="0" vertex="1" parent="-29obUkqVTbiaysX2pNh-367">
          <mxGeometry relative="1" as="geometry">
            <mxPoint x="-22" y="79" as="offset" />
          </mxGeometry>
        </mxCell>
        <mxCell id="-29obUkqVTbiaysX2pNh-370" value="" style="endArrow=classic;html=1;rounded=0;" edge="1" parent="1">
          <mxGeometry relative="1" as="geometry">
            <mxPoint x="687" y="1329" as="sourcePoint" />
            <mxPoint x="290" y="2470" as="targetPoint" />
          </mxGeometry>
        </mxCell>
        <mxCell id="-29obUkqVTbiaysX2pNh-371" value="ACK: 50188" style="edgeLabel;resizable=0;html=1;align=center;verticalAlign=middle;" connectable="0" vertex="1" parent="-29obUkqVTbiaysX2pNh-370">
          <mxGeometry relative="1" as="geometry">
            <mxPoint x="-79" y="247" as="offset" />
          </mxGeometry>
        </mxCell>
        <mxCell id="-29obUkqVTbiaysX2pNh-372" value="Seq: 1" style="edgeLabel;resizable=0;html=1;align=center;verticalAlign=middle;" connectable="0" vertex="1" parent="-29obUkqVTbiaysX2pNh-370">
          <mxGeometry relative="1" as="geometry">
            <mxPoint x="86" y="-240" as="offset" />
          </mxGeometry>
        </mxCell>
        <mxCell id="-29obUkqVTbiaysX2pNh-373" value="" style="endArrow=classic;html=1;rounded=0;" edge="1" parent="1">
          <mxGeometry relative="1" as="geometry">
            <mxPoint x="688" y="1478" as="sourcePoint" />
            <mxPoint x="290" y="2480" as="targetPoint" />
          </mxGeometry>
        </mxCell>
        <mxCell id="-29obUkqVTbiaysX2pNh-374" value="Seq: 1" style="edgeLabel;resizable=0;html=1;align=center;verticalAlign=middle;" connectable="0" vertex="1" parent="-29obUkqVTbiaysX2pNh-373">
          <mxGeometry relative="1" as="geometry">
            <mxPoint x="12" y="-31" as="offset" />
          </mxGeometry>
        </mxCell>
        <mxCell id="-29obUkqVTbiaysX2pNh-375" value="ACK: 55926" style="edgeLabel;resizable=0;html=1;align=center;verticalAlign=middle;" connectable="0" vertex="1" parent="-29obUkqVTbiaysX2pNh-373">
          <mxGeometry relative="1" as="geometry">
            <mxPoint x="125" y="-320" as="offset" />
          </mxGeometry>
        </mxCell>
        <mxCell id="-29obUkqVTbiaysX2pNh-376" value="" style="endArrow=classic;html=1;rounded=0;" edge="1" parent="1">
          <mxGeometry relative="1" as="geometry">
            <mxPoint x="687" y="1560" as="sourcePoint" />
            <mxPoint x="290" y="2490" as="targetPoint" />
          </mxGeometry>
        </mxCell>
        <mxCell id="-29obUkqVTbiaysX2pNh-377" value="ACK: 57378" style="edgeLabel;resizable=0;html=1;align=center;verticalAlign=middle;" connectable="0" vertex="1" parent="-29obUkqVTbiaysX2pNh-376">
          <mxGeometry relative="1" as="geometry">
            <mxPoint x="113" y="-271" as="offset" />
          </mxGeometry>
        </mxCell>
        <mxCell id="-29obUkqVTbiaysX2pNh-378" value="Seq: 1" style="edgeLabel;resizable=0;html=1;align=center;verticalAlign=middle;" connectable="0" vertex="1" parent="-29obUkqVTbiaysX2pNh-376">
          <mxGeometry relative="1" as="geometry">
            <mxPoint x="83" y="-201" as="offset" />
          </mxGeometry>
        </mxCell>
        <mxCell id="-29obUkqVTbiaysX2pNh-379" value="" style="endArrow=classic;html=1;rounded=0;" edge="1" parent="1">
          <mxGeometry relative="1" as="geometry">
            <mxPoint x="686" y="1686" as="sourcePoint" />
            <mxPoint x="290" y="2500" as="targetPoint" />
          </mxGeometry>
        </mxCell>
        <mxCell id="-29obUkqVTbiaysX2pNh-380" value="Seq: 1" style="edgeLabel;resizable=0;html=1;align=center;verticalAlign=middle;" connectable="0" vertex="1" parent="-29obUkqVTbiaysX2pNh-379">
          <mxGeometry relative="1" as="geometry">
            <mxPoint y="3" as="offset" />
          </mxGeometry>
        </mxCell>
        <mxCell id="-29obUkqVTbiaysX2pNh-381" value="ACK: 64638" style="edgeLabel;resizable=0;html=1;align=center;verticalAlign=middle;" connectable="0" vertex="1" parent="-29obUkqVTbiaysX2pNh-379">
          <mxGeometry relative="1" as="geometry">
            <mxPoint x="-20" y="67" as="offset" />
          </mxGeometry>
        </mxCell>
        <mxCell id="-29obUkqVTbiaysX2pNh-382" value="" style="endArrow=classic;html=1;rounded=0;" edge="1" parent="1">
          <mxGeometry relative="1" as="geometry">
            <mxPoint x="288.9999999999999" y="2502.9999999999995" as="sourcePoint" />
            <mxPoint x="689" y="2643.0000000000005" as="targetPoint" />
          </mxGeometry>
        </mxCell>
        <mxCell id="-29obUkqVTbiaysX2pNh-383" value="ACK: 1" style="edgeLabel;resizable=0;html=1;align=center;verticalAlign=middle;" connectable="0" vertex="1" parent="-29obUkqVTbiaysX2pNh-382">
          <mxGeometry relative="1" as="geometry">
            <mxPoint x="38" y="11" as="offset" />
          </mxGeometry>
        </mxCell>
        <mxCell id="-29obUkqVTbiaysX2pNh-384" value="Seq: 105294" style="edgeLabel;resizable=0;html=1;align=center;verticalAlign=middle;" connectable="0" vertex="1" parent="-29obUkqVTbiaysX2pNh-382">
          <mxGeometry relative="1" as="geometry">
            <mxPoint x="-78" y="-28" as="offset" />
          </mxGeometry>
        </mxCell>
        <mxCell id="-29obUkqVTbiaysX2pNh-385" value="" style="endArrow=classic;html=1;rounded=0;" edge="1" parent="1">
          <mxGeometry relative="1" as="geometry">
            <mxPoint x="287.9999999999999" y="2531.9999999999995" as="sourcePoint" />
            <mxPoint x="688" y="2672.0000000000005" as="targetPoint" />
          </mxGeometry>
        </mxCell>
        <mxCell id="-29obUkqVTbiaysX2pNh-386" value="ACK: 1" style="edgeLabel;resizable=0;html=1;align=center;verticalAlign=middle;" connectable="0" vertex="1" parent="-29obUkqVTbiaysX2pNh-385">
          <mxGeometry relative="1" as="geometry">
            <mxPoint x="38" y="11" as="offset" />
          </mxGeometry>
        </mxCell>
        <mxCell id="-29obUkqVTbiaysX2pNh-387" value="Seq: 106746" style="edgeLabel;resizable=0;html=1;align=center;verticalAlign=middle;" connectable="0" vertex="1" parent="-29obUkqVTbiaysX2pNh-385">
          <mxGeometry relative="1" as="geometry">
            <mxPoint x="-78" y="-28" as="offset" />
          </mxGeometry>
        </mxCell>
        <mxCell id="-29obUkqVTbiaysX2pNh-388" value="" style="endArrow=classic;html=1;rounded=0;" edge="1" parent="1">
          <mxGeometry relative="1" as="geometry">
            <mxPoint x="287.9999999999999" y="2559.9999999999995" as="sourcePoint" />
            <mxPoint x="688" y="2700.0000000000005" as="targetPoint" />
          </mxGeometry>
        </mxCell>
        <mxCell id="-29obUkqVTbiaysX2pNh-389" value="ACK: 1" style="edgeLabel;resizable=0;html=1;align=center;verticalAlign=middle;" connectable="0" vertex="1" parent="-29obUkqVTbiaysX2pNh-388">
          <mxGeometry relative="1" as="geometry">
            <mxPoint x="38" y="11" as="offset" />
          </mxGeometry>
        </mxCell>
        <mxCell id="-29obUkqVTbiaysX2pNh-390" value="Seq: 108198" style="edgeLabel;resizable=0;html=1;align=center;verticalAlign=middle;" connectable="0" vertex="1" parent="-29obUkqVTbiaysX2pNh-388">
          <mxGeometry relative="1" as="geometry">
            <mxPoint x="-78" y="-28" as="offset" />
          </mxGeometry>
        </mxCell>
        <mxCell id="-29obUkqVTbiaysX2pNh-391" value="" style="endArrow=classic;html=1;rounded=0;" edge="1" parent="1">
          <mxGeometry relative="1" as="geometry">
            <mxPoint x="288.9999999999999" y="2585.9999999999995" as="sourcePoint" />
            <mxPoint x="689" y="2726.0000000000005" as="targetPoint" />
          </mxGeometry>
        </mxCell>
        <mxCell id="-29obUkqVTbiaysX2pNh-392" value="ACK: 1" style="edgeLabel;resizable=0;html=1;align=center;verticalAlign=middle;" connectable="0" vertex="1" parent="-29obUkqVTbiaysX2pNh-391">
          <mxGeometry relative="1" as="geometry">
            <mxPoint x="38" y="11" as="offset" />
          </mxGeometry>
        </mxCell>
        <mxCell id="-29obUkqVTbiaysX2pNh-393" value="Seq: 109650" style="edgeLabel;resizable=0;html=1;align=center;verticalAlign=middle;" connectable="0" vertex="1" parent="-29obUkqVTbiaysX2pNh-391">
          <mxGeometry relative="1" as="geometry">
            <mxPoint x="-78" y="-28" as="offset" />
          </mxGeometry>
        </mxCell>
        <mxCell id="-29obUkqVTbiaysX2pNh-394" value="" style="endArrow=classic;html=1;rounded=0;" edge="1" parent="1">
          <mxGeometry relative="1" as="geometry">
            <mxPoint x="288.9999999999999" y="2610.9999999999995" as="sourcePoint" />
            <mxPoint x="689" y="2751.0000000000005" as="targetPoint" />
          </mxGeometry>
        </mxCell>
        <mxCell id="-29obUkqVTbiaysX2pNh-395" value="ACK: 1" style="edgeLabel;resizable=0;html=1;align=center;verticalAlign=middle;" connectable="0" vertex="1" parent="-29obUkqVTbiaysX2pNh-394">
          <mxGeometry relative="1" as="geometry">
            <mxPoint x="38" y="11" as="offset" />
          </mxGeometry>
        </mxCell>
        <mxCell id="-29obUkqVTbiaysX2pNh-396" value="Seq: 111102" style="edgeLabel;resizable=0;html=1;align=center;verticalAlign=middle;" connectable="0" vertex="1" parent="-29obUkqVTbiaysX2pNh-394">
          <mxGeometry relative="1" as="geometry">
            <mxPoint x="-78" y="-28" as="offset" />
          </mxGeometry>
        </mxCell>
        <mxCell id="-29obUkqVTbiaysX2pNh-397" value="" style="endArrow=classic;html=1;rounded=0;" edge="1" parent="1">
          <mxGeometry relative="1" as="geometry">
            <mxPoint x="288.9999999999999" y="2638.9999999999995" as="sourcePoint" />
            <mxPoint x="689" y="2779.0000000000005" as="targetPoint" />
          </mxGeometry>
        </mxCell>
        <mxCell id="-29obUkqVTbiaysX2pNh-398" value="ACK: 1" style="edgeLabel;resizable=0;html=1;align=center;verticalAlign=middle;" connectable="0" vertex="1" parent="-29obUkqVTbiaysX2pNh-397">
          <mxGeometry relative="1" as="geometry">
            <mxPoint x="38" y="11" as="offset" />
          </mxGeometry>
        </mxCell>
        <mxCell id="-29obUkqVTbiaysX2pNh-399" value="Seq: 112554" style="edgeLabel;resizable=0;html=1;align=center;verticalAlign=middle;" connectable="0" vertex="1" parent="-29obUkqVTbiaysX2pNh-397">
          <mxGeometry relative="1" as="geometry">
            <mxPoint x="-78" y="-28" as="offset" />
          </mxGeometry>
        </mxCell>
        <mxCell id="-29obUkqVTbiaysX2pNh-400" value="" style="endArrow=classic;html=1;rounded=0;" edge="1" parent="1">
          <mxGeometry relative="1" as="geometry">
            <mxPoint x="288.9999999999999" y="2658.9999999999995" as="sourcePoint" />
            <mxPoint x="689" y="2799.0000000000005" as="targetPoint" />
          </mxGeometry>
        </mxCell>
        <mxCell id="-29obUkqVTbiaysX2pNh-401" value="ACK: 1" style="edgeLabel;resizable=0;html=1;align=center;verticalAlign=middle;" connectable="0" vertex="1" parent="-29obUkqVTbiaysX2pNh-400">
          <mxGeometry relative="1" as="geometry">
            <mxPoint x="38" y="11" as="offset" />
          </mxGeometry>
        </mxCell>
        <mxCell id="-29obUkqVTbiaysX2pNh-402" value="Seq: 114006" style="edgeLabel;resizable=0;html=1;align=center;verticalAlign=middle;" connectable="0" vertex="1" parent="-29obUkqVTbiaysX2pNh-400">
          <mxGeometry relative="1" as="geometry">
            <mxPoint x="-78" y="-28" as="offset" />
          </mxGeometry>
        </mxCell>
        <mxCell id="-29obUkqVTbiaysX2pNh-403" value="" style="endArrow=classic;html=1;rounded=0;" edge="1" parent="1">
          <mxGeometry relative="1" as="geometry">
            <mxPoint x="287.9999999999999" y="2673.9999999999995" as="sourcePoint" />
            <mxPoint x="688" y="2814.0000000000005" as="targetPoint" />
          </mxGeometry>
        </mxCell>
        <mxCell id="-29obUkqVTbiaysX2pNh-404" value="ACK: 1" style="edgeLabel;resizable=0;html=1;align=center;verticalAlign=middle;" connectable="0" vertex="1" parent="-29obUkqVTbiaysX2pNh-403">
          <mxGeometry relative="1" as="geometry">
            <mxPoint x="38" y="11" as="offset" />
          </mxGeometry>
        </mxCell>
        <mxCell id="-29obUkqVTbiaysX2pNh-405" value="Seq: 115458" style="edgeLabel;resizable=0;html=1;align=center;verticalAlign=middle;" connectable="0" vertex="1" parent="-29obUkqVTbiaysX2pNh-403">
          <mxGeometry relative="1" as="geometry">
            <mxPoint x="-78" y="-28" as="offset" />
          </mxGeometry>
        </mxCell>
        <mxCell id="-29obUkqVTbiaysX2pNh-406" value="" style="endArrow=classic;html=1;rounded=0;" edge="1" parent="1">
          <mxGeometry relative="1" as="geometry">
            <mxPoint x="288.9999999999999" y="2692.9999999999995" as="sourcePoint" />
            <mxPoint x="689" y="2833.0000000000005" as="targetPoint" />
          </mxGeometry>
        </mxCell>
        <mxCell id="-29obUkqVTbiaysX2pNh-407" value="ACK: 1" style="edgeLabel;resizable=0;html=1;align=center;verticalAlign=middle;" connectable="0" vertex="1" parent="-29obUkqVTbiaysX2pNh-406">
          <mxGeometry relative="1" as="geometry">
            <mxPoint x="38" y="11" as="offset" />
          </mxGeometry>
        </mxCell>
        <mxCell id="-29obUkqVTbiaysX2pNh-408" value="Seq: 116910" style="edgeLabel;resizable=0;html=1;align=center;verticalAlign=middle;" connectable="0" vertex="1" parent="-29obUkqVTbiaysX2pNh-406">
          <mxGeometry relative="1" as="geometry">
            <mxPoint x="-78" y="-28" as="offset" />
          </mxGeometry>
        </mxCell>
        <mxCell id="-29obUkqVTbiaysX2pNh-409" value="" style="endArrow=classic;html=1;rounded=0;" edge="1" parent="1">
          <mxGeometry relative="1" as="geometry">
            <mxPoint x="288.9999999999999" y="2711.9999999999995" as="sourcePoint" />
            <mxPoint x="689" y="2852.0000000000005" as="targetPoint" />
          </mxGeometry>
        </mxCell>
        <mxCell id="-29obUkqVTbiaysX2pNh-410" value="ACK: 1" style="edgeLabel;resizable=0;html=1;align=center;verticalAlign=middle;" connectable="0" vertex="1" parent="-29obUkqVTbiaysX2pNh-409">
          <mxGeometry relative="1" as="geometry">
            <mxPoint x="38" y="11" as="offset" />
          </mxGeometry>
        </mxCell>
        <mxCell id="-29obUkqVTbiaysX2pNh-411" value="Seq: 118362" style="edgeLabel;resizable=0;html=1;align=center;verticalAlign=middle;" connectable="0" vertex="1" parent="-29obUkqVTbiaysX2pNh-409">
          <mxGeometry relative="1" as="geometry">
            <mxPoint x="-78" y="-28" as="offset" />
          </mxGeometry>
        </mxCell>
        <mxCell id="-29obUkqVTbiaysX2pNh-412" value="" style="endArrow=classic;html=1;rounded=0;" edge="1" parent="1">
          <mxGeometry relative="1" as="geometry">
            <mxPoint x="288.9999999999999" y="2732.9999999999995" as="sourcePoint" />
            <mxPoint x="689" y="2873.0000000000005" as="targetPoint" />
          </mxGeometry>
        </mxCell>
        <mxCell id="-29obUkqVTbiaysX2pNh-413" value="ACK: 1" style="edgeLabel;resizable=0;html=1;align=center;verticalAlign=middle;" connectable="0" vertex="1" parent="-29obUkqVTbiaysX2pNh-412">
          <mxGeometry relative="1" as="geometry">
            <mxPoint x="38" y="11" as="offset" />
          </mxGeometry>
        </mxCell>
        <mxCell id="-29obUkqVTbiaysX2pNh-414" value="Seq: 119814" style="edgeLabel;resizable=0;html=1;align=center;verticalAlign=middle;" connectable="0" vertex="1" parent="-29obUkqVTbiaysX2pNh-412">
          <mxGeometry relative="1" as="geometry">
            <mxPoint x="-78" y="-28" as="offset" />
          </mxGeometry>
        </mxCell>
        <mxCell id="-29obUkqVTbiaysX2pNh-415" value="" style="endArrow=classic;html=1;rounded=0;" edge="1" parent="1">
          <mxGeometry relative="1" as="geometry">
            <mxPoint x="288.9999999999999" y="2752.9999999999995" as="sourcePoint" />
            <mxPoint x="689" y="2893.0000000000005" as="targetPoint" />
          </mxGeometry>
        </mxCell>
        <mxCell id="-29obUkqVTbiaysX2pNh-416" value="ACK: 1" style="edgeLabel;resizable=0;html=1;align=center;verticalAlign=middle;" connectable="0" vertex="1" parent="-29obUkqVTbiaysX2pNh-415">
          <mxGeometry relative="1" as="geometry">
            <mxPoint x="38" y="11" as="offset" />
          </mxGeometry>
        </mxCell>
        <mxCell id="-29obUkqVTbiaysX2pNh-417" value="Seq: 121266" style="edgeLabel;resizable=0;html=1;align=center;verticalAlign=middle;" connectable="0" vertex="1" parent="-29obUkqVTbiaysX2pNh-415">
          <mxGeometry relative="1" as="geometry">
            <mxPoint x="-78" y="-28" as="offset" />
          </mxGeometry>
        </mxCell>
        <mxCell id="-29obUkqVTbiaysX2pNh-418" value="" style="endArrow=classic;html=1;rounded=0;" edge="1" parent="1">
          <mxGeometry relative="1" as="geometry">
            <mxPoint x="288.9999999999999" y="2771.9999999999995" as="sourcePoint" />
            <mxPoint x="689" y="2912.0000000000005" as="targetPoint" />
          </mxGeometry>
        </mxCell>
        <mxCell id="-29obUkqVTbiaysX2pNh-419" value="ACK: 1" style="edgeLabel;resizable=0;html=1;align=center;verticalAlign=middle;" connectable="0" vertex="1" parent="-29obUkqVTbiaysX2pNh-418">
          <mxGeometry relative="1" as="geometry">
            <mxPoint x="38" y="11" as="offset" />
          </mxGeometry>
        </mxCell>
        <mxCell id="-29obUkqVTbiaysX2pNh-420" value="Seq: 122718" style="edgeLabel;resizable=0;html=1;align=center;verticalAlign=middle;" connectable="0" vertex="1" parent="-29obUkqVTbiaysX2pNh-418">
          <mxGeometry relative="1" as="geometry">
            <mxPoint x="-78" y="-28" as="offset" />
          </mxGeometry>
        </mxCell>
        <mxCell id="-29obUkqVTbiaysX2pNh-421" value="" style="endArrow=classic;html=1;rounded=0;" edge="1" parent="1">
          <mxGeometry relative="1" as="geometry">
            <mxPoint x="288.9999999999999" y="2793.9999999999995" as="sourcePoint" />
            <mxPoint x="689" y="2934.0000000000005" as="targetPoint" />
          </mxGeometry>
        </mxCell>
        <mxCell id="-29obUkqVTbiaysX2pNh-422" value="ACK: 1" style="edgeLabel;resizable=0;html=1;align=center;verticalAlign=middle;" connectable="0" vertex="1" parent="-29obUkqVTbiaysX2pNh-421">
          <mxGeometry relative="1" as="geometry">
            <mxPoint x="38" y="11" as="offset" />
          </mxGeometry>
        </mxCell>
        <mxCell id="-29obUkqVTbiaysX2pNh-423" value="Seq: 124170" style="edgeLabel;resizable=0;html=1;align=center;verticalAlign=middle;" connectable="0" vertex="1" parent="-29obUkqVTbiaysX2pNh-421">
          <mxGeometry relative="1" as="geometry">
            <mxPoint x="-78" y="-28" as="offset" />
          </mxGeometry>
        </mxCell>
        <mxCell id="-29obUkqVTbiaysX2pNh-424" value="" style="endArrow=classic;html=1;rounded=0;" edge="1" parent="1">
          <mxGeometry relative="1" as="geometry">
            <mxPoint x="288.9999999999999" y="2816.9999999999995" as="sourcePoint" />
            <mxPoint x="689" y="2957.0000000000005" as="targetPoint" />
          </mxGeometry>
        </mxCell>
        <mxCell id="-29obUkqVTbiaysX2pNh-425" value="ACK: 1" style="edgeLabel;resizable=0;html=1;align=center;verticalAlign=middle;" connectable="0" vertex="1" parent="-29obUkqVTbiaysX2pNh-424">
          <mxGeometry relative="1" as="geometry">
            <mxPoint x="38" y="11" as="offset" />
          </mxGeometry>
        </mxCell>
        <mxCell id="-29obUkqVTbiaysX2pNh-426" value="Seq: 125622" style="edgeLabel;resizable=0;html=1;align=center;verticalAlign=middle;" connectable="0" vertex="1" parent="-29obUkqVTbiaysX2pNh-424">
          <mxGeometry relative="1" as="geometry">
            <mxPoint x="-78" y="-28" as="offset" />
          </mxGeometry>
        </mxCell>
        <mxCell id="-29obUkqVTbiaysX2pNh-427" value="" style="endArrow=classic;html=1;rounded=0;" edge="1" parent="1">
          <mxGeometry relative="1" as="geometry">
            <mxPoint x="288.9999999999999" y="2841.9999999999995" as="sourcePoint" />
            <mxPoint x="689" y="2982.0000000000005" as="targetPoint" />
          </mxGeometry>
        </mxCell>
        <mxCell id="-29obUkqVTbiaysX2pNh-428" value="ACK: 1" style="edgeLabel;resizable=0;html=1;align=center;verticalAlign=middle;" connectable="0" vertex="1" parent="-29obUkqVTbiaysX2pNh-427">
          <mxGeometry relative="1" as="geometry">
            <mxPoint x="38" y="11" as="offset" />
          </mxGeometry>
        </mxCell>
        <mxCell id="-29obUkqVTbiaysX2pNh-429" value="Seq: 127074" style="edgeLabel;resizable=0;html=1;align=center;verticalAlign=middle;" connectable="0" vertex="1" parent="-29obUkqVTbiaysX2pNh-427">
          <mxGeometry relative="1" as="geometry">
            <mxPoint x="-78" y="-28" as="offset" />
          </mxGeometry>
        </mxCell>
        <mxCell id="-29obUkqVTbiaysX2pNh-430" value="" style="endArrow=classic;html=1;rounded=0;" edge="1" parent="1">
          <mxGeometry relative="1" as="geometry">
            <mxPoint x="288.9999999999999" y="2860.9999999999995" as="sourcePoint" />
            <mxPoint x="689" y="3001.0000000000005" as="targetPoint" />
          </mxGeometry>
        </mxCell>
        <mxCell id="-29obUkqVTbiaysX2pNh-431" value="ACK: 1" style="edgeLabel;resizable=0;html=1;align=center;verticalAlign=middle;" connectable="0" vertex="1" parent="-29obUkqVTbiaysX2pNh-430">
          <mxGeometry relative="1" as="geometry">
            <mxPoint x="38" y="11" as="offset" />
          </mxGeometry>
        </mxCell>
        <mxCell id="-29obUkqVTbiaysX2pNh-432" value="Seq: 128526" style="edgeLabel;resizable=0;html=1;align=center;verticalAlign=middle;" connectable="0" vertex="1" parent="-29obUkqVTbiaysX2pNh-430">
          <mxGeometry relative="1" as="geometry">
            <mxPoint x="-78" y="-28" as="offset" />
          </mxGeometry>
        </mxCell>
        <mxCell id="-29obUkqVTbiaysX2pNh-433" value="" style="endArrow=classic;html=1;rounded=0;" edge="1" parent="1">
          <mxGeometry relative="1" as="geometry">
            <mxPoint x="288.9999999999999" y="2879.9999999999995" as="sourcePoint" />
            <mxPoint x="689" y="3020.0000000000005" as="targetPoint" />
          </mxGeometry>
        </mxCell>
        <mxCell id="-29obUkqVTbiaysX2pNh-434" value="ACK: 1" style="edgeLabel;resizable=0;html=1;align=center;verticalAlign=middle;" connectable="0" vertex="1" parent="-29obUkqVTbiaysX2pNh-433">
          <mxGeometry relative="1" as="geometry">
            <mxPoint x="38" y="11" as="offset" />
          </mxGeometry>
        </mxCell>
        <mxCell id="-29obUkqVTbiaysX2pNh-435" value="Seq: 129978" style="edgeLabel;resizable=0;html=1;align=center;verticalAlign=middle;" connectable="0" vertex="1" parent="-29obUkqVTbiaysX2pNh-433">
          <mxGeometry relative="1" as="geometry">
            <mxPoint x="-78" y="-28" as="offset" />
          </mxGeometry>
        </mxCell>
        <mxCell id="-29obUkqVTbiaysX2pNh-436" value="" style="endArrow=classic;html=1;rounded=0;" edge="1" parent="1">
          <mxGeometry relative="1" as="geometry">
            <mxPoint x="288.9999999999999" y="2900.9999999999995" as="sourcePoint" />
            <mxPoint x="689" y="3041.000000000001" as="targetPoint" />
          </mxGeometry>
        </mxCell>
        <mxCell id="-29obUkqVTbiaysX2pNh-437" value="ACK: 1" style="edgeLabel;resizable=0;html=1;align=center;verticalAlign=middle;" connectable="0" vertex="1" parent="-29obUkqVTbiaysX2pNh-436">
          <mxGeometry relative="1" as="geometry">
            <mxPoint x="38" y="11" as="offset" />
          </mxGeometry>
        </mxCell>
        <mxCell id="-29obUkqVTbiaysX2pNh-438" value="Seq: 131430" style="edgeLabel;resizable=0;html=1;align=center;verticalAlign=middle;" connectable="0" vertex="1" parent="-29obUkqVTbiaysX2pNh-436">
          <mxGeometry relative="1" as="geometry">
            <mxPoint x="-78" y="-28" as="offset" />
          </mxGeometry>
        </mxCell>
        <mxCell id="-29obUkqVTbiaysX2pNh-439" value="" style="endArrow=classic;html=1;rounded=0;" edge="1" parent="1">
          <mxGeometry relative="1" as="geometry">
            <mxPoint x="288.9999999999999" y="2921.9999999999995" as="sourcePoint" />
            <mxPoint x="689" y="3062.0000000000005" as="targetPoint" />
          </mxGeometry>
        </mxCell>
        <mxCell id="-29obUkqVTbiaysX2pNh-440" value="ACK: 1" style="edgeLabel;resizable=0;html=1;align=center;verticalAlign=middle;" connectable="0" vertex="1" parent="-29obUkqVTbiaysX2pNh-439">
          <mxGeometry relative="1" as="geometry">
            <mxPoint x="38" y="11" as="offset" />
          </mxGeometry>
        </mxCell>
        <mxCell id="-29obUkqVTbiaysX2pNh-441" value="Seq: 132882" style="edgeLabel;resizable=0;html=1;align=center;verticalAlign=middle;" connectable="0" vertex="1" parent="-29obUkqVTbiaysX2pNh-439">
          <mxGeometry relative="1" as="geometry">
            <mxPoint x="-78" y="-28" as="offset" />
          </mxGeometry>
        </mxCell>
        <mxCell id="-29obUkqVTbiaysX2pNh-442" value="" style="endArrow=classic;html=1;rounded=0;" edge="1" parent="1">
          <mxGeometry relative="1" as="geometry">
            <mxPoint x="288.9999999999999" y="2938.9999999999995" as="sourcePoint" />
            <mxPoint x="689" y="3079.0000000000005" as="targetPoint" />
          </mxGeometry>
        </mxCell>
        <mxCell id="-29obUkqVTbiaysX2pNh-443" value="ACK: 1" style="edgeLabel;resizable=0;html=1;align=center;verticalAlign=middle;" connectable="0" vertex="1" parent="-29obUkqVTbiaysX2pNh-442">
          <mxGeometry relative="1" as="geometry">
            <mxPoint x="38" y="11" as="offset" />
          </mxGeometry>
        </mxCell>
        <mxCell id="-29obUkqVTbiaysX2pNh-444" value="Seq: 134334" style="edgeLabel;resizable=0;html=1;align=center;verticalAlign=middle;" connectable="0" vertex="1" parent="-29obUkqVTbiaysX2pNh-442">
          <mxGeometry relative="1" as="geometry">
            <mxPoint x="-78" y="-28" as="offset" />
          </mxGeometry>
        </mxCell>
        <mxCell id="-29obUkqVTbiaysX2pNh-445" value="" style="endArrow=classic;html=1;rounded=0;" edge="1" parent="1">
          <mxGeometry relative="1" as="geometry">
            <mxPoint x="288.9999999999999" y="2958.9999999999995" as="sourcePoint" />
            <mxPoint x="689" y="3099" as="targetPoint" />
          </mxGeometry>
        </mxCell>
        <mxCell id="-29obUkqVTbiaysX2pNh-446" value="ACK: 1" style="edgeLabel;resizable=0;html=1;align=center;verticalAlign=middle;" connectable="0" vertex="1" parent="-29obUkqVTbiaysX2pNh-445">
          <mxGeometry relative="1" as="geometry">
            <mxPoint x="38" y="11" as="offset" />
          </mxGeometry>
        </mxCell>
        <mxCell id="-29obUkqVTbiaysX2pNh-447" value="Seq: 135786" style="edgeLabel;resizable=0;html=1;align=center;verticalAlign=middle;" connectable="0" vertex="1" parent="-29obUkqVTbiaysX2pNh-445">
          <mxGeometry relative="1" as="geometry">
            <mxPoint x="-78" y="-28" as="offset" />
          </mxGeometry>
        </mxCell>
        <mxCell id="-29obUkqVTbiaysX2pNh-448" value="" style="endArrow=classic;html=1;rounded=0;" edge="1" parent="1">
          <mxGeometry relative="1" as="geometry">
            <mxPoint x="287.9999999999999" y="2978.9999999999995" as="sourcePoint" />
            <mxPoint x="688" y="3119" as="targetPoint" />
          </mxGeometry>
        </mxCell>
        <mxCell id="-29obUkqVTbiaysX2pNh-449" value="ACK: 1" style="edgeLabel;resizable=0;html=1;align=center;verticalAlign=middle;" connectable="0" vertex="1" parent="-29obUkqVTbiaysX2pNh-448">
          <mxGeometry relative="1" as="geometry">
            <mxPoint x="38" y="11" as="offset" />
          </mxGeometry>
        </mxCell>
        <mxCell id="-29obUkqVTbiaysX2pNh-450" value="Seq: 137238" style="edgeLabel;resizable=0;html=1;align=center;verticalAlign=middle;" connectable="0" vertex="1" parent="-29obUkqVTbiaysX2pNh-448">
          <mxGeometry relative="1" as="geometry">
            <mxPoint x="-78" y="-28" as="offset" />
          </mxGeometry>
        </mxCell>
        <mxCell id="-29obUkqVTbiaysX2pNh-451" value="" style="endArrow=classic;html=1;rounded=0;" edge="1" parent="1">
          <mxGeometry relative="1" as="geometry">
            <mxPoint x="288.9999999999999" y="3000.9999999999995" as="sourcePoint" />
            <mxPoint x="689" y="3141" as="targetPoint" />
          </mxGeometry>
        </mxCell>
        <mxCell id="-29obUkqVTbiaysX2pNh-452" value="ACK: 1" style="edgeLabel;resizable=0;html=1;align=center;verticalAlign=middle;" connectable="0" vertex="1" parent="-29obUkqVTbiaysX2pNh-451">
          <mxGeometry relative="1" as="geometry">
            <mxPoint x="38" y="11" as="offset" />
          </mxGeometry>
        </mxCell>
        <mxCell id="-29obUkqVTbiaysX2pNh-453" value="Seq: 138690" style="edgeLabel;resizable=0;html=1;align=center;verticalAlign=middle;" connectable="0" vertex="1" parent="-29obUkqVTbiaysX2pNh-451">
          <mxGeometry relative="1" as="geometry">
            <mxPoint x="-78" y="-28" as="offset" />
          </mxGeometry>
        </mxCell>
        <mxCell id="-29obUkqVTbiaysX2pNh-454" value="" style="endArrow=classic;html=1;rounded=0;" edge="1" parent="1">
          <mxGeometry relative="1" as="geometry">
            <mxPoint x="288.9999999999999" y="3021" as="sourcePoint" />
            <mxPoint x="689" y="3161" as="targetPoint" />
          </mxGeometry>
        </mxCell>
        <mxCell id="-29obUkqVTbiaysX2pNh-455" value="ACK: 1" style="edgeLabel;resizable=0;html=1;align=center;verticalAlign=middle;" connectable="0" vertex="1" parent="-29obUkqVTbiaysX2pNh-454">
          <mxGeometry relative="1" as="geometry">
            <mxPoint x="38" y="11" as="offset" />
          </mxGeometry>
        </mxCell>
        <mxCell id="-29obUkqVTbiaysX2pNh-456" value="Seq: 140142" style="edgeLabel;resizable=0;html=1;align=center;verticalAlign=middle;" connectable="0" vertex="1" parent="-29obUkqVTbiaysX2pNh-454">
          <mxGeometry relative="1" as="geometry">
            <mxPoint x="-78" y="-28" as="offset" />
          </mxGeometry>
        </mxCell>
        <mxCell id="-29obUkqVTbiaysX2pNh-457" value="" style="endArrow=classic;html=1;rounded=0;" edge="1" parent="1">
          <mxGeometry relative="1" as="geometry">
            <mxPoint x="287.9999999999999" y="3036" as="sourcePoint" />
            <mxPoint x="688" y="3176" as="targetPoint" />
          </mxGeometry>
        </mxCell>
        <mxCell id="-29obUkqVTbiaysX2pNh-458" value="ACK: 1" style="edgeLabel;resizable=0;html=1;align=center;verticalAlign=middle;" connectable="0" vertex="1" parent="-29obUkqVTbiaysX2pNh-457">
          <mxGeometry relative="1" as="geometry">
            <mxPoint x="38" y="11" as="offset" />
          </mxGeometry>
        </mxCell>
        <mxCell id="-29obUkqVTbiaysX2pNh-459" value="Seq: 141594" style="edgeLabel;resizable=0;html=1;align=center;verticalAlign=middle;" connectable="0" vertex="1" parent="-29obUkqVTbiaysX2pNh-457">
          <mxGeometry relative="1" as="geometry">
            <mxPoint x="-78" y="-28" as="offset" />
          </mxGeometry>
        </mxCell>
        <mxCell id="-29obUkqVTbiaysX2pNh-460" value="" style="endArrow=classic;html=1;rounded=0;" edge="1" parent="1">
          <mxGeometry relative="1" as="geometry">
            <mxPoint x="686" y="1738" as="sourcePoint" />
            <mxPoint x="290" y="3063" as="targetPoint" />
          </mxGeometry>
        </mxCell>
        <mxCell id="-29obUkqVTbiaysX2pNh-461" value="ACK: 66090" style="edgeLabel;resizable=0;html=1;align=center;verticalAlign=middle;" connectable="0" vertex="1" parent="-29obUkqVTbiaysX2pNh-460">
          <mxGeometry relative="1" as="geometry">
            <mxPoint x="-25" y="107" as="offset" />
          </mxGeometry>
        </mxCell>
        <mxCell id="-29obUkqVTbiaysX2pNh-462" value="Seq: 1" style="edgeLabel;resizable=0;html=1;align=center;verticalAlign=middle;" connectable="0" vertex="1" parent="-29obUkqVTbiaysX2pNh-460">
          <mxGeometry relative="1" as="geometry">
            <mxPoint x="85" y="-293" as="offset" />
          </mxGeometry>
        </mxCell>
        <mxCell id="-29obUkqVTbiaysX2pNh-463" value="" style="endArrow=classic;html=1;rounded=0;" edge="1" parent="1">
          <mxGeometry relative="1" as="geometry">
            <mxPoint x="688" y="1769" as="sourcePoint" />
            <mxPoint x="290" y="3090.584716796875" as="targetPoint" />
          </mxGeometry>
        </mxCell>
        <mxCell id="-29obUkqVTbiaysX2pNh-464" value="Seq: 1" style="edgeLabel;resizable=0;html=1;align=center;verticalAlign=middle;" connectable="0" vertex="1" parent="-29obUkqVTbiaysX2pNh-463">
          <mxGeometry relative="1" as="geometry">
            <mxPoint y="16" as="offset" />
          </mxGeometry>
        </mxCell>
        <mxCell id="-29obUkqVTbiaysX2pNh-465" value="ACK: 67542" style="edgeLabel;resizable=0;html=1;align=center;verticalAlign=middle;" connectable="0" vertex="1" parent="-29obUkqVTbiaysX2pNh-463">
          <mxGeometry relative="1" as="geometry">
            <mxPoint x="-19" y="100" as="offset" />
          </mxGeometry>
        </mxCell>
        <mxCell id="-29obUkqVTbiaysX2pNh-466" value="" style="endArrow=classic;html=1;rounded=0;" edge="1" parent="1">
          <mxGeometry relative="1" as="geometry">
            <mxPoint x="687" y="1884" as="sourcePoint" />
            <mxPoint x="290" y="3107.6607259114585" as="targetPoint" />
          </mxGeometry>
        </mxCell>
        <mxCell id="-29obUkqVTbiaysX2pNh-467" value="Seq: 1" style="edgeLabel;resizable=0;html=1;align=center;verticalAlign=middle;" connectable="0" vertex="1" parent="-29obUkqVTbiaysX2pNh-466">
          <mxGeometry relative="1" as="geometry">
            <mxPoint x="82" y="-236" as="offset" />
          </mxGeometry>
        </mxCell>
        <mxCell id="-29obUkqVTbiaysX2pNh-468" value="ACK: 73350" style="edgeLabel;resizable=0;html=1;align=center;verticalAlign=middle;" connectable="0" vertex="1" parent="-29obUkqVTbiaysX2pNh-466">
          <mxGeometry relative="1" as="geometry">
            <mxPoint x="92" y="-276" as="offset" />
          </mxGeometry>
        </mxCell>
        <mxCell id="-29obUkqVTbiaysX2pNh-469" value="" style="endArrow=classic;html=1;rounded=0;" edge="1" parent="1">
          <mxGeometry relative="1" as="geometry">
            <mxPoint x="688" y="1919" as="sourcePoint" />
            <mxPoint x="288" y="3131.339070638021" as="targetPoint" />
          </mxGeometry>
        </mxCell>
        <mxCell id="-29obUkqVTbiaysX2pNh-470" value="ACK: 74802" style="edgeLabel;resizable=0;html=1;align=center;verticalAlign=middle;" connectable="0" vertex="1" parent="-29obUkqVTbiaysX2pNh-469">
          <mxGeometry relative="1" as="geometry">
            <mxPoint x="-10" y="30" as="offset" />
          </mxGeometry>
        </mxCell>
        <mxCell id="-29obUkqVTbiaysX2pNh-471" value="Seq: 1" style="edgeLabel;resizable=0;html=1;align=center;verticalAlign=middle;" connectable="0" vertex="1" parent="-29obUkqVTbiaysX2pNh-469">
          <mxGeometry relative="1" as="geometry">
            <mxPoint x="80" y="-236" as="offset" />
          </mxGeometry>
        </mxCell>
        <mxCell id="-29obUkqVTbiaysX2pNh-472" value="" style="endArrow=classic;html=1;rounded=0;" edge="1" parent="1">
          <mxGeometry relative="1" as="geometry">
            <mxPoint x="289.9999999999999" y="3131" as="sourcePoint" />
            <mxPoint x="690" y="3271" as="targetPoint" />
          </mxGeometry>
        </mxCell>
        <mxCell id="-29obUkqVTbiaysX2pNh-473" value="ACK: 1" style="edgeLabel;resizable=0;html=1;align=center;verticalAlign=middle;" connectable="0" vertex="1" parent="-29obUkqVTbiaysX2pNh-472">
          <mxGeometry relative="1" as="geometry">
            <mxPoint x="38" y="11" as="offset" />
          </mxGeometry>
        </mxCell>
        <mxCell id="-29obUkqVTbiaysX2pNh-474" value="Seq: 143046" style="edgeLabel;resizable=0;html=1;align=center;verticalAlign=middle;" connectable="0" vertex="1" parent="-29obUkqVTbiaysX2pNh-472">
          <mxGeometry relative="1" as="geometry">
            <mxPoint x="-78" y="-28" as="offset" />
          </mxGeometry>
        </mxCell>
        <mxCell id="-29obUkqVTbiaysX2pNh-475" value="" style="endArrow=classic;html=1;rounded=0;" edge="1" parent="1">
          <mxGeometry relative="1" as="geometry">
            <mxPoint x="288" y="3149" as="sourcePoint" />
            <mxPoint x="688" y="3289" as="targetPoint" />
          </mxGeometry>
        </mxCell>
        <mxCell id="-29obUkqVTbiaysX2pNh-476" value="ACK: 1" style="edgeLabel;resizable=0;html=1;align=center;verticalAlign=middle;" connectable="0" vertex="1" parent="-29obUkqVTbiaysX2pNh-475">
          <mxGeometry relative="1" as="geometry">
            <mxPoint x="38" y="11" as="offset" />
          </mxGeometry>
        </mxCell>
        <mxCell id="-29obUkqVTbiaysX2pNh-477" value="Seq: 144498" style="edgeLabel;resizable=0;html=1;align=center;verticalAlign=middle;" connectable="0" vertex="1" parent="-29obUkqVTbiaysX2pNh-475">
          <mxGeometry relative="1" as="geometry">
            <mxPoint x="-78" y="-28" as="offset" />
          </mxGeometry>
        </mxCell>
        <mxCell id="-29obUkqVTbiaysX2pNh-478" value="" style="endArrow=classic;html=1;rounded=0;" edge="1" parent="1">
          <mxGeometry relative="1" as="geometry">
            <mxPoint x="289.0000000000001" y="3167" as="sourcePoint" />
            <mxPoint x="689" y="3307" as="targetPoint" />
          </mxGeometry>
        </mxCell>
        <mxCell id="-29obUkqVTbiaysX2pNh-479" value="ACK: 1" style="edgeLabel;resizable=0;html=1;align=center;verticalAlign=middle;" connectable="0" vertex="1" parent="-29obUkqVTbiaysX2pNh-478">
          <mxGeometry relative="1" as="geometry">
            <mxPoint x="38" y="11" as="offset" />
          </mxGeometry>
        </mxCell>
        <mxCell id="-29obUkqVTbiaysX2pNh-480" value="Seq: 145950" style="edgeLabel;resizable=0;html=1;align=center;verticalAlign=middle;" connectable="0" vertex="1" parent="-29obUkqVTbiaysX2pNh-478">
          <mxGeometry relative="1" as="geometry">
            <mxPoint x="-78" y="-28" as="offset" />
          </mxGeometry>
        </mxCell>
        <mxCell id="-29obUkqVTbiaysX2pNh-481" value="" style="endArrow=classic;html=1;rounded=0;" edge="1" parent="1">
          <mxGeometry relative="1" as="geometry">
            <mxPoint x="289.0000000000001" y="3182.9999999999995" as="sourcePoint" />
            <mxPoint x="689" y="3322.9999999999995" as="targetPoint" />
          </mxGeometry>
        </mxCell>
        <mxCell id="-29obUkqVTbiaysX2pNh-482" value="ACK: 1" style="edgeLabel;resizable=0;html=1;align=center;verticalAlign=middle;" connectable="0" vertex="1" parent="-29obUkqVTbiaysX2pNh-481">
          <mxGeometry relative="1" as="geometry">
            <mxPoint x="38" y="11" as="offset" />
          </mxGeometry>
        </mxCell>
        <mxCell id="-29obUkqVTbiaysX2pNh-483" value="Seq: 147402" style="edgeLabel;resizable=0;html=1;align=center;verticalAlign=middle;" connectable="0" vertex="1" parent="-29obUkqVTbiaysX2pNh-481">
          <mxGeometry relative="1" as="geometry">
            <mxPoint x="-78" y="-28" as="offset" />
          </mxGeometry>
        </mxCell>
        <mxCell id="-29obUkqVTbiaysX2pNh-484" value="" style="endArrow=classic;html=1;rounded=0;" edge="1" parent="1">
          <mxGeometry relative="1" as="geometry">
            <mxPoint x="289.0000000000001" y="3200.9999999999995" as="sourcePoint" />
            <mxPoint x="689" y="3340.9999999999995" as="targetPoint" />
          </mxGeometry>
        </mxCell>
        <mxCell id="-29obUkqVTbiaysX2pNh-485" value="ACK: 1" style="edgeLabel;resizable=0;html=1;align=center;verticalAlign=middle;" connectable="0" vertex="1" parent="-29obUkqVTbiaysX2pNh-484">
          <mxGeometry relative="1" as="geometry">
            <mxPoint x="38" y="11" as="offset" />
          </mxGeometry>
        </mxCell>
        <mxCell id="-29obUkqVTbiaysX2pNh-486" value="Seq: 148854" style="edgeLabel;resizable=0;html=1;align=center;verticalAlign=middle;" connectable="0" vertex="1" parent="-29obUkqVTbiaysX2pNh-484">
          <mxGeometry relative="1" as="geometry">
            <mxPoint x="-78" y="-28" as="offset" />
          </mxGeometry>
        </mxCell>
        <mxCell id="-29obUkqVTbiaysX2pNh-487" value="" style="endArrow=classic;html=1;rounded=0;" edge="1" parent="1">
          <mxGeometry relative="1" as="geometry">
            <mxPoint x="289.0000000000001" y="3221" as="sourcePoint" />
            <mxPoint x="689" y="3361" as="targetPoint" />
          </mxGeometry>
        </mxCell>
        <mxCell id="-29obUkqVTbiaysX2pNh-488" value="ACK: 1" style="edgeLabel;resizable=0;html=1;align=center;verticalAlign=middle;" connectable="0" vertex="1" parent="-29obUkqVTbiaysX2pNh-487">
          <mxGeometry relative="1" as="geometry">
            <mxPoint x="38" y="11" as="offset" />
          </mxGeometry>
        </mxCell>
        <mxCell id="-29obUkqVTbiaysX2pNh-489" value="Seq: 150306" style="edgeLabel;resizable=0;html=1;align=center;verticalAlign=middle;" connectable="0" vertex="1" parent="-29obUkqVTbiaysX2pNh-487">
          <mxGeometry relative="1" as="geometry">
            <mxPoint x="-78" y="-28" as="offset" />
          </mxGeometry>
        </mxCell>
        <mxCell id="-29obUkqVTbiaysX2pNh-490" value="" style="endArrow=classic;html=1;rounded=0;" edge="1" parent="1">
          <mxGeometry relative="1" as="geometry">
            <mxPoint x="686" y="2086" as="sourcePoint" />
            <mxPoint x="290" y="3244.0936279296875" as="targetPoint" />
          </mxGeometry>
        </mxCell>
        <mxCell id="-29obUkqVTbiaysX2pNh-491" value="Seq: 1" style="edgeLabel;resizable=0;html=1;align=center;verticalAlign=middle;" connectable="0" vertex="1" parent="-29obUkqVTbiaysX2pNh-490">
          <mxGeometry relative="1" as="geometry">
            <mxPoint x="-4" y="28" as="offset" />
          </mxGeometry>
        </mxCell>
        <mxCell id="-29obUkqVTbiaysX2pNh-492" value="ACK: 82062" style="edgeLabel;resizable=0;html=1;align=center;verticalAlign=middle;" connectable="0" vertex="1" parent="-29obUkqVTbiaysX2pNh-490">
          <mxGeometry relative="1" as="geometry">
            <mxPoint x="52" y="-137" as="offset" />
          </mxGeometry>
        </mxCell>
        <mxCell id="-29obUkqVTbiaysX2pNh-493" value="" style="endArrow=classic;html=1;rounded=0;" edge="1" parent="1">
          <mxGeometry relative="1" as="geometry">
            <mxPoint x="688" y="2109" as="sourcePoint" />
            <mxPoint x="290" y="3251.169637044271" as="targetPoint" />
          </mxGeometry>
        </mxCell>
        <mxCell id="-29obUkqVTbiaysX2pNh-494" value="Seq: 1" style="edgeLabel;resizable=0;html=1;align=center;verticalAlign=middle;" connectable="0" vertex="1" parent="-29obUkqVTbiaysX2pNh-493">
          <mxGeometry relative="1" as="geometry">
            <mxPoint x="11" y="-30" as="offset" />
          </mxGeometry>
        </mxCell>
        <mxCell id="-29obUkqVTbiaysX2pNh-495" value="ACK: 83514" style="edgeLabel;resizable=0;html=1;align=center;verticalAlign=middle;" connectable="0" vertex="1" parent="-29obUkqVTbiaysX2pNh-493">
          <mxGeometry relative="1" as="geometry">
            <mxPoint x="51" y="-130" as="offset" />
          </mxGeometry>
        </mxCell>
        <mxCell id="-29obUkqVTbiaysX2pNh-496" value="" style="endArrow=classic;html=1;rounded=0;" edge="1" parent="1">
          <mxGeometry relative="1" as="geometry">
            <mxPoint x="688" y="2243" as="sourcePoint" />
            <mxPoint x="290" y="3262.339070638021" as="targetPoint" />
          </mxGeometry>
        </mxCell>
        <mxCell id="-29obUkqVTbiaysX2pNh-497" value="Seq: 1" style="edgeLabel;resizable=0;html=1;align=center;verticalAlign=middle;" connectable="0" vertex="1" parent="-29obUkqVTbiaysX2pNh-496">
          <mxGeometry relative="1" as="geometry" />
        </mxCell>
        <mxCell id="-29obUkqVTbiaysX2pNh-499" value="ACK: 90774" style="edgeLabel;resizable=0;html=1;align=center;verticalAlign=middle;" connectable="0" vertex="1" parent="-29obUkqVTbiaysX2pNh-496">
          <mxGeometry relative="1" as="geometry">
            <mxPoint x="71" y="-183" as="offset" />
          </mxGeometry>
        </mxCell>
        <mxCell id="-29obUkqVTbiaysX2pNh-500" value="" style="endArrow=classic;html=1;rounded=0;" edge="1" parent="1">
          <mxGeometry relative="1" as="geometry">
            <mxPoint x="685" y="2282" as="sourcePoint" />
            <mxPoint x="290" y="3270.584920247396" as="targetPoint" />
          </mxGeometry>
        </mxCell>
        <mxCell id="-29obUkqVTbiaysX2pNh-501" value="Seq: 1" style="edgeLabel;resizable=0;html=1;align=center;verticalAlign=middle;" connectable="0" vertex="1" parent="-29obUkqVTbiaysX2pNh-500">
          <mxGeometry relative="1" as="geometry" />
        </mxCell>
        <mxCell id="-29obUkqVTbiaysX2pNh-502" value="ACK: 92226" style="edgeLabel;resizable=0;html=1;align=center;verticalAlign=middle;" connectable="0" vertex="1" parent="-29obUkqVTbiaysX2pNh-500">
          <mxGeometry relative="1" as="geometry">
            <mxPoint x="103" y="-236" as="offset" />
          </mxGeometry>
        </mxCell>
        <mxCell id="-29obUkqVTbiaysX2pNh-503" value="" style="endArrow=classic;html=1;rounded=0;" edge="1" parent="1">
          <mxGeometry relative="1" as="geometry">
            <mxPoint x="688" y="2379" as="sourcePoint" />
            <mxPoint x="290" y="3290.584920247396" as="targetPoint" />
          </mxGeometry>
        </mxCell>
        <mxCell id="-29obUkqVTbiaysX2pNh-504" value="Seq: 1" style="edgeLabel;resizable=0;html=1;align=center;verticalAlign=middle;" connectable="0" vertex="1" parent="-29obUkqVTbiaysX2pNh-503">
          <mxGeometry relative="1" as="geometry" />
        </mxCell>
        <mxCell id="-29obUkqVTbiaysX2pNh-505" value="ACK: 96582" style="edgeLabel;resizable=0;html=1;align=center;verticalAlign=middle;" connectable="0" vertex="1" parent="-29obUkqVTbiaysX2pNh-503">
          <mxGeometry relative="1" as="geometry">
            <mxPoint x="111" y="-245" as="offset" />
          </mxGeometry>
        </mxCell>
        <mxCell id="-29obUkqVTbiaysX2pNh-506" value="" style="endArrow=classic;html=1;rounded=0;" edge="1" parent="1">
          <mxGeometry relative="1" as="geometry">
            <mxPoint x="687" y="2412" as="sourcePoint" />
            <mxPoint x="290" y="3316.4326985677085" as="targetPoint" />
          </mxGeometry>
        </mxCell>
        <mxCell id="-29obUkqVTbiaysX2pNh-507" value="Seq: 1" style="edgeLabel;resizable=0;html=1;align=center;verticalAlign=middle;" connectable="0" vertex="1" parent="-29obUkqVTbiaysX2pNh-506">
          <mxGeometry relative="1" as="geometry">
            <mxPoint y="8" as="offset" />
          </mxGeometry>
        </mxCell>
        <mxCell id="-29obUkqVTbiaysX2pNh-508" value="ACK: 98034" style="edgeLabel;resizable=0;html=1;align=center;verticalAlign=middle;" connectable="0" vertex="1" parent="-29obUkqVTbiaysX2pNh-506">
          <mxGeometry relative="1" as="geometry">
            <mxPoint x="132" y="-304" as="offset" />
          </mxGeometry>
        </mxCell>
        <mxCell id="-29obUkqVTbiaysX2pNh-509" value="" style="endArrow=classic;html=1;rounded=0;" edge="1" parent="1">
          <mxGeometry relative="1" as="geometry">
            <mxPoint x="688" y="2439" as="sourcePoint" />
            <mxPoint x="290" y="3330.584716796875" as="targetPoint" />
          </mxGeometry>
        </mxCell>
        <mxCell id="-29obUkqVTbiaysX2pNh-510" value="Seq: 1" style="edgeLabel;resizable=0;html=1;align=center;verticalAlign=middle;" connectable="0" vertex="1" parent="-29obUkqVTbiaysX2pNh-509">
          <mxGeometry relative="1" as="geometry">
            <mxPoint x="-3" y="20" as="offset" />
          </mxGeometry>
        </mxCell>
        <mxCell id="-29obUkqVTbiaysX2pNh-511" value="ACK: 99486" style="edgeLabel;resizable=0;html=1;align=center;verticalAlign=middle;" connectable="0" vertex="1" parent="-29obUkqVTbiaysX2pNh-509">
          <mxGeometry relative="1" as="geometry">
            <mxPoint x="111" y="-255" as="offset" />
          </mxGeometry>
        </mxCell>
        <mxCell id="-29obUkqVTbiaysX2pNh-512" value="" style="endArrow=classic;html=1;rounded=0;" edge="1" parent="1">
          <mxGeometry relative="1" as="geometry">
            <mxPoint x="690" y="2470" as="sourcePoint" />
            <mxPoint x="290" y="3340.584716796875" as="targetPoint" />
          </mxGeometry>
        </mxCell>
        <mxCell id="-29obUkqVTbiaysX2pNh-513" value="Seq: 1" style="edgeLabel;resizable=0;html=1;align=center;verticalAlign=middle;" connectable="0" vertex="1" parent="-29obUkqVTbiaysX2pNh-512">
          <mxGeometry relative="1" as="geometry">
            <mxPoint x="-10" y="35" as="offset" />
          </mxGeometry>
        </mxCell>
        <mxCell id="-29obUkqVTbiaysX2pNh-514" value="ACK: 100938" style="edgeLabel;resizable=0;html=1;align=center;verticalAlign=middle;" connectable="0" vertex="1" parent="-29obUkqVTbiaysX2pNh-512">
          <mxGeometry relative="1" as="geometry">
            <mxPoint x="110" y="-215" as="offset" />
          </mxGeometry>
        </mxCell>
        <mxCell id="-29obUkqVTbiaysX2pNh-515" value="" style="endArrow=classic;html=1;rounded=0;" edge="1" parent="1">
          <mxGeometry relative="1" as="geometry">
            <mxPoint x="689" y="2499" as="sourcePoint" />
            <mxPoint x="290" y="3351.16943359375" as="targetPoint" />
          </mxGeometry>
        </mxCell>
        <mxCell id="-29obUkqVTbiaysX2pNh-516" value="Seq: 1" style="edgeLabel;resizable=0;html=1;align=center;verticalAlign=middle;" connectable="0" vertex="1" parent="-29obUkqVTbiaysX2pNh-515">
          <mxGeometry relative="1" as="geometry">
            <mxPoint x="-19" y="55" as="offset" />
          </mxGeometry>
        </mxCell>
        <mxCell id="-29obUkqVTbiaysX2pNh-517" value="ACK: 102390" style="edgeLabel;resizable=0;html=1;align=center;verticalAlign=middle;" connectable="0" vertex="1" parent="-29obUkqVTbiaysX2pNh-515">
          <mxGeometry relative="1" as="geometry">
            <mxPoint x="91" y="-195" as="offset" />
          </mxGeometry>
        </mxCell>
        <mxCell id="-29obUkqVTbiaysX2pNh-518" value="" style="endArrow=classic;html=1;rounded=0;" edge="1" parent="1">
          <mxGeometry relative="1" as="geometry">
            <mxPoint x="686" y="2559" as="sourcePoint" />
            <mxPoint x="290" y="3370" as="targetPoint" />
          </mxGeometry>
        </mxCell>
        <mxCell id="-29obUkqVTbiaysX2pNh-519" value="Seq: 1" style="edgeLabel;resizable=0;html=1;align=center;verticalAlign=middle;" connectable="0" vertex="1" parent="-29obUkqVTbiaysX2pNh-518">
          <mxGeometry relative="1" as="geometry" />
        </mxCell>
        <mxCell id="-29obUkqVTbiaysX2pNh-520" value="ACK: 105294" style="edgeLabel;resizable=0;html=1;align=center;verticalAlign=middle;" connectable="0" vertex="1" parent="-29obUkqVTbiaysX2pNh-518">
          <mxGeometry relative="1" as="geometry">
            <mxPoint x="149" y="-299" as="offset" />
          </mxGeometry>
        </mxCell>
        <mxCell id="-29obUkqVTbiaysX2pNh-521" value="" style="endArrow=classic;html=1;rounded=0;" edge="1" parent="1">
          <mxGeometry relative="1" as="geometry">
            <mxPoint x="687" y="2727" as="sourcePoint" />
            <mxPoint x="290" y="3380" as="targetPoint" />
          </mxGeometry>
        </mxCell>
        <mxCell id="-29obUkqVTbiaysX2pNh-522" value="Seq: 1" style="edgeLabel;resizable=0;html=1;align=center;verticalAlign=middle;" connectable="0" vertex="1" parent="-29obUkqVTbiaysX2pNh-521">
          <mxGeometry relative="1" as="geometry" />
        </mxCell>
        <mxCell id="-29obUkqVTbiaysX2pNh-523" value="ACK: 111102" style="edgeLabel;resizable=0;html=1;align=center;verticalAlign=middle;" connectable="0" vertex="1" parent="-29obUkqVTbiaysX2pNh-521">
          <mxGeometry relative="1" as="geometry">
            <mxPoint x="103" y="-171" as="offset" />
          </mxGeometry>
        </mxCell>
        <mxCell id="-29obUkqVTbiaysX2pNh-524" value="" style="endArrow=classic;html=1;rounded=0;" edge="1" parent="1">
          <mxGeometry relative="1" as="geometry">
            <mxPoint x="690" y="2750" as="sourcePoint" />
            <mxPoint x="290" y="3390.584716796875" as="targetPoint" />
          </mxGeometry>
        </mxCell>
        <mxCell id="-29obUkqVTbiaysX2pNh-525" value="Seq: 1" style="edgeLabel;resizable=0;html=1;align=center;verticalAlign=middle;" connectable="0" vertex="1" parent="-29obUkqVTbiaysX2pNh-524">
          <mxGeometry relative="1" as="geometry" />
        </mxCell>
        <mxCell id="-29obUkqVTbiaysX2pNh-526" value="ACK: 112554" style="edgeLabel;resizable=0;html=1;align=center;verticalAlign=middle;" connectable="0" vertex="1" parent="-29obUkqVTbiaysX2pNh-524">
          <mxGeometry relative="1" as="geometry">
            <mxPoint x="90" y="-140" as="offset" />
          </mxGeometry>
        </mxCell>
        <mxCell id="-29obUkqVTbiaysX2pNh-527" value="" style="endArrow=classic;html=1;rounded=0;" edge="1" parent="1">
          <mxGeometry relative="1" as="geometry">
            <mxPoint x="687" y="2780" as="sourcePoint" />
            <mxPoint x="287" y="3420.584716796875" as="targetPoint" />
          </mxGeometry>
        </mxCell>
        <mxCell id="-29obUkqVTbiaysX2pNh-528" value="Seq: 1" style="edgeLabel;resizable=0;html=1;align=center;verticalAlign=middle;" connectable="0" vertex="1" parent="-29obUkqVTbiaysX2pNh-527">
          <mxGeometry relative="1" as="geometry" />
        </mxCell>
        <mxCell id="-29obUkqVTbiaysX2pNh-529" value="ACK: 114006" style="edgeLabel;resizable=0;html=1;align=center;verticalAlign=middle;" connectable="0" vertex="1" parent="-29obUkqVTbiaysX2pNh-527">
          <mxGeometry relative="1" as="geometry">
            <mxPoint x="90" y="-140" as="offset" />
          </mxGeometry>
        </mxCell>
        <mxCell id="-29obUkqVTbiaysX2pNh-530" value="" style="endArrow=classic;html=1;rounded=0;" edge="1" parent="1">
          <mxGeometry relative="1" as="geometry">
            <mxPoint x="688" y="2833" as="sourcePoint" />
            <mxPoint x="290" y="3432.3392740885415" as="targetPoint" />
          </mxGeometry>
        </mxCell>
        <mxCell id="-29obUkqVTbiaysX2pNh-531" value="ACK: 118362" style="edgeLabel;resizable=0;html=1;align=center;verticalAlign=middle;" connectable="0" vertex="1" parent="-29obUkqVTbiaysX2pNh-530">
          <mxGeometry relative="1" as="geometry" />
        </mxCell>
        <mxCell id="-29obUkqVTbiaysX2pNh-532" value="Seq: 1" style="edgeLabel;resizable=0;html=1;align=center;verticalAlign=middle;" connectable="0" vertex="1" parent="-29obUkqVTbiaysX2pNh-530">
          <mxGeometry relative="1" as="geometry">
            <mxPoint x="91" y="-143" as="offset" />
          </mxGeometry>
        </mxCell>
        <mxCell id="-29obUkqVTbiaysX2pNh-533" value="" style="endArrow=classic;html=1;rounded=0;" edge="1" parent="1">
          <mxGeometry relative="1" as="geometry">
            <mxPoint x="680" y="2890" as="sourcePoint" />
            <mxPoint x="290" y="3442.9239908854165" as="targetPoint" />
          </mxGeometry>
        </mxCell>
        <mxCell id="-29obUkqVTbiaysX2pNh-534" value="ACK: 122718" style="edgeLabel;resizable=0;html=1;align=center;verticalAlign=middle;" connectable="0" vertex="1" parent="-29obUkqVTbiaysX2pNh-533">
          <mxGeometry relative="1" as="geometry">
            <mxPoint x="8" as="offset" />
          </mxGeometry>
        </mxCell>
        <mxCell id="-29obUkqVTbiaysX2pNh-535" value="Seq: 1" style="edgeLabel;resizable=0;html=1;align=center;verticalAlign=middle;" connectable="0" vertex="1" parent="-29obUkqVTbiaysX2pNh-533">
          <mxGeometry relative="1" as="geometry">
            <mxPoint x="105" y="-146" as="offset" />
          </mxGeometry>
        </mxCell>
        <mxCell id="-29obUkqVTbiaysX2pNh-536" value="" style="endArrow=classic;html=1;rounded=0;" edge="1" parent="1">
          <mxGeometry relative="1" as="geometry">
            <mxPoint x="690" y="3000" as="sourcePoint" />
            <mxPoint x="290" y="3460.584716796875" as="targetPoint" />
          </mxGeometry>
        </mxCell>
        <mxCell id="-29obUkqVTbiaysX2pNh-537" value="ACK: 129978" style="edgeLabel;resizable=0;html=1;align=center;verticalAlign=middle;" connectable="0" vertex="1" parent="-29obUkqVTbiaysX2pNh-536">
          <mxGeometry relative="1" as="geometry">
            <mxPoint x="70" y="-80" as="offset" />
          </mxGeometry>
        </mxCell>
        <mxCell id="-29obUkqVTbiaysX2pNh-538" value="Seq: 1" style="edgeLabel;resizable=0;html=1;align=center;verticalAlign=middle;" connectable="0" vertex="1" parent="-29obUkqVTbiaysX2pNh-536">
          <mxGeometry relative="1" as="geometry">
            <mxPoint x="110" y="-130" as="offset" />
          </mxGeometry>
        </mxCell>
        <mxCell id="-29obUkqVTbiaysX2pNh-539" value="" style="endArrow=classic;html=1;rounded=0;" edge="1" parent="1">
          <mxGeometry relative="1" as="geometry">
            <mxPoint x="689" y="3020" as="sourcePoint" />
            <mxPoint x="290" y="3470.584716796875" as="targetPoint" />
          </mxGeometry>
        </mxCell>
        <mxCell id="-29obUkqVTbiaysX2pNh-540" value="ACK: 131430" style="edgeLabel;resizable=0;html=1;align=center;verticalAlign=middle;" connectable="0" vertex="1" parent="-29obUkqVTbiaysX2pNh-539">
          <mxGeometry relative="1" as="geometry">
            <mxPoint x="60" y="-65" as="offset" />
          </mxGeometry>
        </mxCell>
        <mxCell id="-29obUkqVTbiaysX2pNh-541" value="Seq: 1" style="edgeLabel;resizable=0;html=1;align=center;verticalAlign=middle;" connectable="0" vertex="1" parent="-29obUkqVTbiaysX2pNh-539">
          <mxGeometry relative="1" as="geometry">
            <mxPoint x="110" y="-125" as="offset" />
          </mxGeometry>
        </mxCell>
      </root>
    </mxGraphModel>
  </diagram>
</mxfile>
